<?xml version="1.0" encoding="UTF-8"?>
<!DOCTYPE svg PUBLIC "-//W3C//DTD SVG 1.1//EN" "http://www.w3.org/Graphics/SVG/1.1/DTD/svg11.dtd">
<svg version="1.1" xmlns="http://www.w3.org/2000/svg" xmlns:xlink="http://www.w3.org/1999/xlink" x="0px" y="0px" width="100" height="100" viewBox="0, 0, 100, 100">
  <g id="Layer 1">
    <path d="M80.004,82.354 L20.002,82.354 C18.708,82.354 17.649,83.407 17.649,84.707 L17.649,97.647 C17.649,98.941 18.708,100 20.002,100 L80.004,100 C81.298,100 82.351,98.941 82.351,97.647 L82.351,84.707 C82.351,83.407 81.298,82.354 80.004,82.354 z M80.004,23.528 L58.823,23.528 L58.823,2.353 C58.823,1.059 57.77,0 56.476,0 L43.53,0 C42.236,0 41.177,1.059 41.177,2.353 L41.177,23.528 L20.002,23.528 C18.708,23.528 17.649,24.587 17.649,25.887 L17.649,38.827 C17.649,40.121 18.708,41.18 20.002,41.18 L41.177,41.18 L41.177,62.355 C41.177,63.649 42.236,64.708 43.53,64.708 L56.476,64.708 C57.77,64.708 58.823,63.649 58.823,62.355 L58.823,41.18 L80.004,41.18 C81.298,41.18 82.351,40.121 82.351,38.827 L82.351,25.887 C82.351,24.587 81.298,23.528 80.004,23.528 z" fill="#1A1919"/>
    <path d="M17.649,23.616 L82.351,23.616 L82.351,41.166 L17.649,41.166 z" fill="#000100"/>
    <path d="M17.649,82.451 L82.351,82.451 L82.351,100 L17.649,100 z" fill="#000100"/>
    <path d="M58.775,0.04 L58.775,64.742 L41.225,64.742 L41.225,0.04 z" fill="#000100"/>
  </g>
  <defs/>
</svg>
