<?xml version="1.0" encoding="UTF-8"?>
<!DOCTYPE svg PUBLIC "-//W3C//DTD SVG 1.1//EN" "http://www.w3.org/Graphics/SVG/1.1/DTD/svg11.dtd">
<svg version="1.1" xmlns="http://www.w3.org/2000/svg" xmlns:xlink="http://www.w3.org/1999/xlink" x="0px" y="0px" width="800" height="800" viewBox="0, 0, 800, 800">
  <g id="Layer 1">
    <path d="M190.928,117.126 C190.153,117.574 189.956,118.302 190.494,118.754 L191.096,119.256 L234.094,94.535 L233.488,94.051 C232.943,93.624 231.881,93.624 231.136,94.051 L190.928,117.126 z" fill-opacity="0" stroke="#8A8B8A" stroke-width="0.519"/>
    <path d="M213.343,104.26 L190.565,117.406 C190.304,117.668 190.178,117.976 190.225,118.249 L232.835,93.779 C232.305,93.668 231.645,93.757 231.136,94.052 L213.343,104.26 z" fill-opacity="0" stroke="#8A8B8A" stroke-width="0.519"/>
    <path d="M84.247,333.091 C83.279,333.711 82.978,334.726 83.562,335.346 L83.594,335.378 L96.5,348.89 C97.16,349.202 98.138,349.109 98.92,348.599 L100.989,347.244 L86.309,331.768 L84.247,333.091 z" fill-opacity="0" stroke="#8A8B8A" stroke-width="0.519"/>
    <path d="M83.562,335.348 L83.59,335.38 L96.499,348.891 C96.901,349.078 97.417,349.117 97.941,349.006 L83.544,333.773 C83.185,334.318 83.164,334.924 83.562,335.348" fill-opacity="0" stroke="#8A8B8A" stroke-width="0.519"/>
    <path d="M120.997,371.931 C120.018,372.591 119.735,373.659 120.352,374.316 L120.388,374.348 L133.996,388.605 C134.688,388.935 135.688,388.835 136.477,388.293 L138.571,386.866 L123.077,370.533 L120.997,371.931 z" fill-opacity="0" stroke="#8A8B8A" stroke-width="0.519"/>
    <path d="M120.352,374.315 L120.384,374.347 L133.999,388.604 C134.415,388.805 134.953,388.845 135.484,388.73 L120.291,372.655 C119.936,373.221 119.929,373.863 120.352,374.315" fill-opacity="0" stroke="#8A8B8A" stroke-width="0.519"/>
    <path d="M44.735,291.194 C43.785,291.775 43.459,292.739 44.011,293.324 L60.327,310.604 C60.893,311.206 62.145,311.206 63.106,310.604 L65.042,309.388 L46.665,290.011 L44.735,291.194 z" fill-opacity="0" stroke="#8A8B8A" stroke-width="0.519"/>
    <path d="M44.011,293.323 L44.029,293.341 L60.369,310.632 C60.825,311.116 61.617,311.081 62.13,310.973 L44.039,291.839 C43.677,292.345 43.631,292.922 44.011,293.323" fill-opacity="0" stroke="#8A8B8A" stroke-width="0.519"/>
    <path d="M767.397,440.057 C795.08,460.948 801.376,496.387 780.17,518.852 L574.39,736.792 C546.23,766.612 498.671,766.615 470.393,736.796 L19.991,261.899 C4.891,245.981 14.562,220.715 40.599,205.745 L238.662,91.876 C259.883,79.677 289.904,79.677 306.069,91.876 L767.397,440.057 z" fill-opacity="0" stroke="#8A8B8A" stroke-width="0.519"/>
    <path d="M570.201,732.63 C544.214,760.026 500.664,760.03 474.559,732.63 L23.838,259.609 C9.86,244.936 18.656,221.728 42.721,207.858 L240.892,93.635 C260.524,82.318 288.171,82.318 303.113,93.635 L764.456,442.995 C790.019,462.355 795.696,494.915 776.06,515.612 L570.201,732.63 z" fill-opacity="0" stroke="#8A8B8A" stroke-width="0.519"/>
    <path d="M569.037,731.475 C543.675,758.182 501.193,758.182 475.716,731.478 L24.909,258.973 C11.247,244.655 19.824,221.992 43.311,208.441 L241.511,94.118 C260.684,83.063 287.696,83.066 302.287,94.121 L763.637,443.815" fill-opacity="0" stroke="#8A8B8A" stroke-width="0.519"/>
    <path d="M566.726,729.174 C542.6,754.508 502.249,754.508 478.02,729.174 L27.036,257.709 C14.016,244.097 22.138,222.532 44.492,209.623 L242.753,95.102 C261.012,84.553 286.755,84.549 300.643,95.102 L762,445.452 C785.741,463.478 790.926,493.739 772.657,512.927 L566.726,729.174 z" fill-opacity="0" stroke="#8A8B8A" stroke-width="0.519"/>
    <path d="M73.273,277.332 L317.522,127.018 L701.095,422.92 L448.795,661.873 L73.273,277.332 z" fill-opacity="0" stroke="#8A8B8A" stroke-width="0.519"/>
    <path d="M603.208,603.396 C620.843,619.414 648.131,619.414 663.604,603.396 C678.783,587.68 676.42,562.801 658.86,547.819 C641.612,533.103 615.69,533.11 600.439,547.819 C584.906,562.805 585.903,587.672 603.208,603.396" fill-opacity="0" stroke="#8A8B8A" stroke-width="0.519"/>
    <path d="M662.928,602.797 C647.803,618.445 621.042,618.442 603.808,602.8 C586.879,587.438 585.89,563.037 601.076,548.378 C615.986,533.988 641.434,533.984 658.298,548.378 C675.464,563.037 677.769,587.442 662.928,602.797" fill-opacity="0" stroke="#8A8B8A" stroke-width="0.519"/>
    <path d="M613.86,570.909 C611.332,573.397 611.558,577.474 614.384,579.984 L627.694,591.839 C630.567,594.403 634.97,594.399 637.491,591.843 L649.202,579.984 C651.691,577.474 651.364,573.401 648.496,570.905 L635.203,559.344 C632.381,556.884 628.082,556.884 625.589,559.341 L613.86,570.909 z M629.075,590.451 L615.764,578.614 C613.781,576.861 613.624,574.003 615.384,572.26 L627.121,560.678 C628.863,558.953 631.883,558.953 633.858,560.678 L647.151,572.257 C649.159,574.01 649.378,576.861 647.639,578.614 L635.924,590.455 C634.16,592.233 631.083,592.237 629.075,590.451" fill-opacity="0" stroke="#8A8B8A" stroke-width="0.519"/>
    <path d="M157.735,166.902 C159.79,168.724 163.968,168.724 167.055,166.902 C170.132,165.088 170.935,162.151 168.877,160.344 C166.818,158.547 162.677,158.547 159.607,160.344 C156.531,162.151 155.684,165.081 157.735,166.902" fill-opacity="0" stroke="#8A8B8A" stroke-width="0.519"/>
    <path d="M160.692,165.161 C161.663,166.018 163.628,166.018 165.081,165.161 C166.529,164.308 166.917,162.92 165.945,162.074 C164.977,161.22 163.019,161.217 161.567,162.07 C160.118,162.92 159.723,164.308 160.692,165.161" fill-opacity="0" stroke="#8A8B8A" stroke-width="0.519"/>
    <path d="M162.886,164.205 C162.424,163.8 162.61,163.137 163.299,162.732 C163.991,162.327 164.93,162.327 165.389,162.732 C165.852,163.14 165.669,163.8 164.977,164.205 C164.285,164.611 163.349,164.611 162.886,164.205" fill-opacity="0" stroke="#8A8B8A" stroke-width="0.519"/>
    <path d="M162.354,165.06 C162.103,164.841 162.203,164.486 162.576,164.267 C162.949,164.052 163.448,164.052 163.699,164.267 C163.946,164.489 163.846,164.841 163.473,165.06 C163.107,165.278 162.605,165.278 162.354,165.06" fill-opacity="0" stroke="#8A8B8A" stroke-width="0.519"/>
    <path d="M240.887,93.633 C260.52,82.317 288.116,82.32 303.001,93.644 L305.959,91.884 C289.855,79.681 259.885,79.674 238.668,91.869 L240.887,93.633 z" fill-opacity="0" stroke="#8A8B8A" stroke-width="0.519"/>
    <path d="M23.858,259.524 C9.877,244.854 18.673,221.683 42.727,207.859 L40.604,205.751 C14.574,220.675 4.91,245.887 20.01,261.805 L23.858,259.524 z" fill-opacity="0" stroke="#8A8B8A" stroke-width="0.519"/>
    <path d="M474.619,732.554 C500.731,759.954 544.202,759.939 570.102,732.533 L574.294,736.7 C546.221,766.526 498.744,766.544 470.463,736.721 L474.619,732.554 z" fill-opacity="0" stroke="#8A8B8A" stroke-width="0.519"/>
    <path d="M153.717,185.939 C150.569,187.814 149.687,190.891 151.77,192.784 L151.874,192.881 C153.965,194.778 158.264,194.778 161.416,192.881 L203.478,167.587 C206.501,165.772 207.229,162.814 205.116,161.007 L205.009,160.913 C202.9,159.117 198.723,159.117 195.704,160.913 L153.717,185.939 z" fill-opacity="0" stroke="#8A8B8A" stroke-width="0.519"/>
    <path d="M201.167,165.608 L159.127,190.817 C158.962,190.924 158.779,191.003 158.593,191.082 L159.414,193.789 C160.106,193.56 160.787,193.259 161.418,192.882 L203.473,167.591 C204.237,167.132 204.85,166.602 205.316,166.028 L201.924,164.945 C201.738,165.189 201.487,165.415 201.167,165.608" fill-opacity="0" stroke="#8A8B8A" stroke-width="0.519"/>
    <path d="M201.923,164.943 L205.319,166.03 C206.499,164.577 206.653,162.896 205.663,161.601 L201.83,162.975 C202.44,163.494 202.436,164.276 201.923,164.943" fill-opacity="0" stroke="#8A8B8A" stroke-width="0.519"/>
    <path d="M158.987,190.689 C157.746,191.435 156.003,191.435 155.179,190.689 L155.071,190.592 C154.254,189.846 154.601,188.595 155.842,187.853 L197.85,162.759 C199.041,162.049 200.747,162.053 201.576,162.759 L201.683,162.856 C202.515,163.566 202.218,164.767 201.027,165.484 L158.987,190.689 z" fill-opacity="0" stroke="#8A8B8A" stroke-width="0.519"/>
    <path d="M155.845,187.854 C154.605,188.597 154.253,189.848 155.071,190.59 L155.182,190.691 C156.003,191.433 157.746,191.433 158.99,190.691 L201.03,165.482 C202.214,164.772 202.522,163.564 201.69,162.85 L201.583,162.761 C200.751,162.044 199.037,162.047 197.853,162.761 L155.845,187.854 z" fill-opacity="0" stroke="#8A8B8A" stroke-width="0.519"/>
    <path d="M155.763,191.041 L158.209,191.041 C158.435,190.966 158.657,190.869 158.872,190.758 L155.261,190.758 C155.405,190.873 155.577,190.966 155.763,191.041" fill-opacity="0" stroke="#8A8B8A" stroke-width="0.519"/>
    <path d="M154.818,190.286 L159.659,190.286 L160.136,190.002 L154.686,190.002 C154.718,190.099 154.757,190.196 154.818,190.286" fill-opacity="0" stroke="#8A8B8A" stroke-width="0.519"/>
    <path d="M154.633,189.53 L160.919,189.53 L161.396,189.246 L154.68,189.246 C154.655,189.34 154.637,189.44 154.633,189.53" fill-opacity="0" stroke="#8A8B8A" stroke-width="0.519"/>
    <path d="M154.882,188.777 L162.176,188.777 L162.649,188.494 L155.087,188.491 C155.008,188.584 154.94,188.681 154.882,188.777" fill-opacity="0" stroke="#8A8B8A" stroke-width="0.519"/>
    <path d="M155.845,187.854 C155.756,187.912 155.67,187.966 155.591,188.023 L163.437,188.027 L163.91,187.743 L156.043,187.743 L155.845,187.858 L155.845,187.854 z" fill-opacity="0" stroke="#8A8B8A" stroke-width="0.519"/>
    <path d="M156.824,187.269 L164.688,187.273 L165.161,186.99 L157.298,186.99 L156.824,187.269 z" fill-opacity="0" stroke="#8A8B8A" stroke-width="0.519"/>
    <path d="M158.079,186.52 L165.942,186.52 L166.419,186.234 L158.563,186.234 L158.079,186.52 z" fill-opacity="0" stroke="#8A8B8A" stroke-width="0.519"/>
    <path d="M159.341,185.768 L167.194,185.768 L167.667,185.485 L159.814,185.485 L159.341,185.768 z" fill-opacity="0" stroke="#8A8B8A" stroke-width="0.519"/>
    <path d="M160.593,185.019 L168.443,185.019 L168.92,184.733 L161.067,184.736 L160.593,185.019 z" fill-opacity="0" stroke="#8A8B8A" stroke-width="0.519"/>
    <path d="M161.847,184.271 L169.696,184.267 L170.166,183.988 L162.324,183.988 L161.847,184.271 z" fill-opacity="0" stroke="#8A8B8A" stroke-width="0.519"/>
    <path d="M163.101,183.522 L170.943,183.522 L171.413,183.239 L163.575,183.239 L163.101,183.522 z" fill-opacity="0" stroke="#8A8B8A" stroke-width="0.519"/>
    <path d="M164.351,182.773 L172.19,182.773 L172.66,182.494 L164.821,182.494 L164.351,182.773 z" fill-opacity="0" stroke="#8A8B8A" stroke-width="0.519"/>
    <path d="M165.601,182.028 L173.433,182.028 L173.899,181.745 L166.075,181.745 L165.601,182.028 z" fill-opacity="0" stroke="#8A8B8A" stroke-width="0.519"/>
    <path d="M166.846,181.283 L174.678,181.28 L175.148,181 L167.32,181 L166.846,181.283 z" fill-opacity="0" stroke="#8A8B8A" stroke-width="0.519"/>
    <path d="M168.095,180.538 L175.923,180.538 L176.389,180.255 L168.565,180.259 L168.095,180.538 z" fill-opacity="0" stroke="#8A8B8A" stroke-width="0.519"/>
    <path d="M169.34,179.794 L177.164,179.794 L177.63,179.51 L169.809,179.514 L169.34,179.794 z" fill-opacity="0" stroke="#8A8B8A" stroke-width="0.519"/>
    <path d="M170.582,179.052 L178.399,179.048 L178.869,178.769 L171.052,178.772 L170.582,179.052 z" fill-opacity="0" stroke="#8A8B8A" stroke-width="0.519"/>
    <path d="M171.825,178.31 L179.635,178.307 L180.105,178.027 L172.295,178.027 L171.825,178.31 z" fill-opacity="0" stroke="#8A8B8A" stroke-width="0.519"/>
    <path d="M173.072,177.565 L180.872,177.565 L181.341,177.286 L173.539,177.286 L173.072,177.565 z" fill-opacity="0" stroke="#8A8B8A" stroke-width="0.519"/>
    <path d="M174.309,176.824 L182.109,176.824 L182.575,176.548 L174.776,176.548 L174.309,176.824 z" fill-opacity="0" stroke="#8A8B8A" stroke-width="0.519"/>
    <path d="M175.547,176.086 L183.343,176.086 L183.809,175.807 L176.013,175.81 L175.547,176.086 z" fill-opacity="0" stroke="#8A8B8A" stroke-width="0.519"/>
    <path d="M176.784,175.348 L184.573,175.348 L185.039,175.069 L177.251,175.069 L176.784,175.348 z" fill-opacity="0" stroke="#8A8B8A" stroke-width="0.519"/>
    <path d="M178.017,174.611 L185.805,174.607 L186.268,174.331 L178.483,174.331 L178.017,174.611 z" fill-opacity="0" stroke="#8A8B8A" stroke-width="0.519"/>
    <path d="M179.252,173.873 L187.037,173.869 L187.5,173.593 L179.718,173.593 L179.252,173.873 z" fill-opacity="0" stroke="#8A8B8A" stroke-width="0.519"/>
    <path d="M180.484,173.135 L188.262,173.135 L188.725,172.859 L180.95,172.859 L180.484,173.135 z" fill-opacity="0" stroke="#8A8B8A" stroke-width="0.519"/>
    <path d="M181.714,172.401 L189.485,172.401 L189.947,172.125 L182.18,172.125 L181.714,172.401 z" fill-opacity="0" stroke="#8A8B8A" stroke-width="0.519"/>
    <path d="M182.945,171.667 L190.715,171.667 L191.174,171.391 L183.411,171.391 L182.945,171.667 z" fill-opacity="0" stroke="#8A8B8A" stroke-width="0.519"/>
    <path d="M184.173,170.933 L191.937,170.933 L192.396,170.656 L184.64,170.656 L184.173,170.933 z" fill-opacity="0" stroke="#8A8B8A" stroke-width="0.519"/>
    <path d="M185.398,170.202 L193.158,170.199 L193.62,169.922 L185.861,169.922 L185.398,170.202 z" fill-opacity="0" stroke="#8A8B8A" stroke-width="0.519"/>
    <path d="M186.623,169.468 L194.379,169.468 L194.841,169.192 L187.085,169.192 L186.623,169.468 z" fill-opacity="0" stroke="#8A8B8A" stroke-width="0.519"/>
    <path d="M187.847,168.737 L195.6,168.737 L196.063,168.461 L188.31,168.461 L187.847,168.737 z" fill-opacity="0" stroke="#8A8B8A" stroke-width="0.519"/>
    <path d="M189.069,168.007 L196.818,168.007 L197.277,167.731 L189.531,167.731 L189.069,168.007 z" fill-opacity="0" stroke="#8A8B8A" stroke-width="0.519"/>
    <path d="M190.292,167.277 L198.037,167.277 L198.492,167.001 L190.754,167.001 L190.292,167.277 z" fill-opacity="0" stroke="#8A8B8A" stroke-width="0.519"/>
    <path d="M191.509,166.55 L199.247,166.55 L199.706,166.274 L191.972,166.277 L191.509,166.55 z" fill-opacity="0" stroke="#8A8B8A" stroke-width="0.519"/>
    <path d="M192.727,165.823 L200.468,165.819 L200.92,165.547 L193.189,165.547 L192.727,165.823 z" fill-opacity="0" stroke="#8A8B8A" stroke-width="0.519"/>
    <path d="M193.944,165.092 L201.539,165.092 C201.629,165.01 201.715,164.913 201.787,164.82 L194.4,164.823 L193.944,165.092 z" fill-opacity="0" stroke="#8A8B8A" stroke-width="0.519"/>
    <path d="M195.156,164.369 L202.048,164.369 C202.08,164.279 202.116,164.183 202.13,164.097 L195.618,164.097 L195.156,164.369 z" fill-opacity="0" stroke="#8A8B8A" stroke-width="0.519"/>
    <path d="M196.37,163.642 L202.143,163.646 C202.132,163.553 202.104,163.456 202.064,163.37 L196.832,163.37 L196.37,163.642 z" fill-opacity="0" stroke="#8A8B8A" stroke-width="0.519"/>
    <path d="M197.584,162.919 L201.765,162.919 C201.736,162.897 201.711,162.876 201.689,162.851 L201.582,162.758 C201.532,162.718 201.481,162.686 201.428,162.646 L198.057,162.646 C197.985,162.686 197.917,162.718 197.849,162.761 L197.584,162.919 z" fill-opacity="0" stroke="#8A8B8A" stroke-width="0.519"/>
    <path d="M155.845,187.854 C155.82,187.872 155.784,187.89 155.763,187.912 L155.021,190.54 C155.038,190.555 155.056,190.572 155.074,190.59 L155.182,190.691 C155.232,190.73 155.282,190.773 155.336,190.813 L156.233,187.625 L155.845,187.854 z" fill-opacity="0" stroke="#8A8B8A" stroke-width="0.519"/>
    <path d="M157.017,187.157 L155.909,191.097 C156.024,191.133 156.149,191.166 156.278,191.191 L157.494,186.873 L157.017,187.157 z" fill-opacity="0" stroke="#8A8B8A" stroke-width="0.519"/>
    <path d="M158.277,186.404 L156.914,191.248 C157.047,191.248 157.183,191.241 157.319,191.227 L158.753,186.121 L158.277,186.404 z" fill-opacity="0" stroke="#8A8B8A" stroke-width="0.519"/>
    <path d="M159.534,185.652 L158.006,191.102 C158.157,191.059 158.297,191.016 158.444,190.959 L160.007,185.369 L159.534,185.652 z" fill-opacity="0" stroke="#8A8B8A" stroke-width="0.519"/>
    <path d="M160.788,184.903 L159.21,190.562 L159.683,190.275 L161.257,184.624 L160.788,184.903 z" fill-opacity="0" stroke="#8A8B8A" stroke-width="0.519"/>
    <path d="M162.042,184.154 L160.471,189.798 L160.948,189.515 L162.515,183.871 L162.042,184.154 z" fill-opacity="0" stroke="#8A8B8A" stroke-width="0.519"/>
    <path d="M163.294,183.406 L161.727,189.046 L162.204,188.759 L163.764,183.126 L163.294,183.406 z" fill-opacity="0" stroke="#8A8B8A" stroke-width="0.519"/>
    <path d="M164.544,182.661 L162.981,188.294 L163.458,188.011 L165.018,182.378 L164.544,182.661 z" fill-opacity="0" stroke="#8A8B8A" stroke-width="0.519"/>
    <path d="M165.796,181.912 L164.243,187.538 L164.713,187.255 L166.266,181.632 L165.796,181.912 z" fill-opacity="0" stroke="#8A8B8A" stroke-width="0.519"/>
    <path d="M167.042,181.167 L165.493,186.786 L165.967,186.507 L167.512,180.888 L167.042,181.167 z" fill-opacity="0" stroke="#8A8B8A" stroke-width="0.519"/>
    <path d="M168.291,180.422 L166.746,186.038 L167.215,185.754 L168.761,180.142 L168.291,180.422 z" fill-opacity="0" stroke="#8A8B8A" stroke-width="0.519"/>
    <path d="M169.532,179.681 L167.997,185.286 L168.471,185.006 L170.002,179.398 L169.532,179.681 z" fill-opacity="0" stroke="#8A8B8A" stroke-width="0.519"/>
    <path d="M170.775,178.936 L169.244,184.54 L169.721,184.254 L171.245,178.656 L170.775,178.936 z" fill-opacity="0" stroke="#8A8B8A" stroke-width="0.519"/>
    <path d="M172.02,178.194 L170.492,183.788 L170.965,183.508 L172.489,177.914 L172.02,178.194 z" fill-opacity="0" stroke="#8A8B8A" stroke-width="0.519"/>
    <path d="M173.261,177.453 L171.744,183.043 L172.214,182.76 L173.727,177.173 L173.261,177.453 z" fill-opacity="0" stroke="#8A8B8A" stroke-width="0.519"/>
    <path d="M174.499,176.711 L172.993,182.294 L173.459,182.015 L174.965,176.431 L174.499,176.711 z" fill-opacity="0" stroke="#8A8B8A" stroke-width="0.519"/>
    <path d="M175.738,175.97 L174.232,181.549 L174.702,181.266 L176.204,175.694 L175.738,175.97 z" fill-opacity="0" stroke="#8A8B8A" stroke-width="0.519"/>
    <path d="M176.975,175.232 L175.476,180.805 L175.95,180.521 L177.441,174.956 L176.975,175.232 z" fill-opacity="0" stroke="#8A8B8A" stroke-width="0.519"/>
    <path d="M178.205,174.498 L176.717,180.06 L177.187,179.78 L178.672,174.218 L178.205,174.498 z" fill-opacity="0" stroke="#8A8B8A" stroke-width="0.519"/>
    <path d="M179.445,173.757 L177.957,179.315 L178.43,179.035 L179.911,173.481 L179.445,173.757 z" fill-opacity="0" stroke="#8A8B8A" stroke-width="0.519"/>
    <path d="M180.673,173.022 L179.196,178.57 L179.665,178.294 L181.139,172.746 L180.673,173.022 z" fill-opacity="0" stroke="#8A8B8A" stroke-width="0.519"/>
    <path d="M181.901,172.288 L180.431,177.828 L180.897,177.552 L182.371,172.008 L181.901,172.288 z" fill-opacity="0" stroke="#8A8B8A" stroke-width="0.519"/>
    <path d="M183.134,171.554 L181.667,177.087 L182.137,176.808 L183.6,171.275 L183.134,171.554 z" fill-opacity="0" stroke="#8A8B8A" stroke-width="0.519"/>
    <path d="M184.362,170.82 L182.903,176.346 L183.369,176.07 L184.829,170.544 L184.362,170.82 z" fill-opacity="0" stroke="#8A8B8A" stroke-width="0.519"/>
    <path d="M185.588,170.086 L184.133,175.612 L184.599,175.329 L186.055,169.81 L185.588,170.086 z" fill-opacity="0" stroke="#8A8B8A" stroke-width="0.519"/>
    <path d="M186.815,169.355 L185.363,174.87 L185.829,174.591 L187.274,169.079 L186.815,169.355 z" fill-opacity="0" stroke="#8A8B8A" stroke-width="0.519"/>
    <path d="M188.037,168.625 L186.595,174.133 L187.058,173.857 L188.499,168.349 L188.037,168.625 z" fill-opacity="0" stroke="#8A8B8A" stroke-width="0.519"/>
    <path d="M189.26,167.894 L187.822,173.399 L188.284,173.122 L189.722,167.618 L189.26,167.894 z" fill-opacity="0" stroke="#8A8B8A" stroke-width="0.519"/>
    <path d="M190.477,167.168 L189.05,172.665 L189.512,172.385 L190.939,166.892 L190.477,167.168 z" fill-opacity="0" stroke="#8A8B8A" stroke-width="0.519"/>
    <path d="M191.698,166.437 L190.278,171.931 L190.737,171.651 L192.157,166.165 L191.698,166.437 z" fill-opacity="0" stroke="#8A8B8A" stroke-width="0.519"/>
    <path d="M192.914,165.71 L191.505,171.196 L191.96,170.917 L193.38,165.434 L192.914,165.71 z" fill-opacity="0" stroke="#8A8B8A" stroke-width="0.519"/>
    <path d="M194.133,164.983 L192.72,170.466 L193.182,170.183 L194.592,164.707 L194.133,164.983 z" fill-opacity="0" stroke="#8A8B8A" stroke-width="0.519"/>
    <path d="M195.347,164.256 L193.945,169.732 L194.4,169.452 L195.809,163.984 L195.347,164.256 z" fill-opacity="0" stroke="#8A8B8A" stroke-width="0.519"/>
    <path d="M196.563,163.529 L195.164,169.001 L195.623,168.725 L197.022,163.257 L196.563,163.529 z" fill-opacity="0" stroke="#8A8B8A" stroke-width="0.519"/>
    <path d="M197.773,162.806 L196.382,168.271 L196.837,167.995 L198.225,162.57 C198.092,162.623 197.974,162.692 197.852,162.763 L197.773,162.806 z" fill-opacity="0" stroke="#8A8B8A" stroke-width="0.519"/>
    <path d="M197.6,167.539 L198.059,167.262 L199.321,162.26 C199.192,162.278 199.056,162.303 198.92,162.335 L197.6,167.539 z" fill-opacity="0" stroke="#8A8B8A" stroke-width="0.519"/>
    <path d="M198.814,166.808 L199.273,166.535 L200.356,162.257 C200.231,162.239 200.102,162.236 199.973,162.236 L198.814,166.808 z" fill-opacity="0" stroke="#8A8B8A" stroke-width="0.519"/>
    <path d="M200.032,166.081 L200.491,165.805 L201.305,162.563 C201.194,162.509 201.079,162.452 200.957,162.409 L200.032,166.081 z" fill-opacity="0" stroke="#8A8B8A" stroke-width="0.519"/>
    <path d="M201.246,165.34 C201.446,165.196 201.618,165.035 201.751,164.863 L202.103,163.471 C202.052,163.299 201.959,163.142 201.834,162.995 L201.246,165.34 z" fill-opacity="0" stroke="#8A8B8A" stroke-width="0.519"/>
    <path d="M792.71,488.481 C793.22,471.094 784.352,452.856 767.391,440.055 L306.066,91.881 C289.901,79.675 259.884,79.675 238.66,91.881 L40.6,205.746 C22.936,215.901 12.849,230.778 12.871,244.275 L12.828,244.282 L12.828,259.831 L12.91,259.834 C12.774,266.515 14.997,272.89 19.992,278.222 L470.391,758.835 C498.676,789.01 546.231,789.006 574.387,758.832 L780.164,538.267 C788.225,529.629 792.251,519.086 792.689,508.178 L792.753,508.178 L792.753,488.488 L792.71,488.481 z" fill-opacity="0" stroke="#8A8B8A" stroke-width="0.519"/>
    <path d="M468.338,566.505 C481.247,554.801 481.667,536.187 469.586,524.906 C457.656,513.79 437.794,513.794 424.903,524.913 C411.833,536.191 410.628,554.798 422.519,566.498 C434.581,578.364 455.239,578.364 468.338,566.505 z z" fill="#00A3DA" opacity="0.3"/>
    <path d="M407.196,507.956 C420.069,497.059 421.141,479.718 409.874,469.201 C398.751,458.827 379.567,458.838 366.722,469.204 C353.72,479.718 351.916,497.055 362.989,507.953 C374.21,518.983 394.136,518.986 407.196,507.956 z z" fill="#00A3DA" opacity="0.3"/>
    <path d="M468.838,567.005 C455.739,578.864 435.081,578.864 423.019,566.998 C411.128,555.298 412.333,536.691 425.403,525.413 C438.294,514.294 458.156,514.29 470.086,525.406 C482.167,536.687 481.747,555.301 468.838,567.005 z" fill-opacity="0" stroke="#00A3DA" stroke-width="0.519"/>
    <path d="M407.696,508.456 C394.636,519.486 374.71,519.483 363.489,508.453 C352.416,497.555 354.22,480.218 367.222,469.704 C380.067,459.337 399.251,459.327 410.374,469.701 C421.641,480.218 420.569,497.559 407.696,508.456 z" fill-opacity="0" stroke="#00A3DA" stroke-width="0.519"/>
    <path d="M468.837,596 C455.741,608.063 435.083,608.063 423.017,595.993 C411.13,584.092 412.335,565.155 425.405,553.684 C438.296,542.367 458.158,542.36 470.084,553.677 C482.169,565.151 481.753,584.095 468.837,596 z" fill-opacity="0" stroke="#00A3DA" stroke-width="0.519" opacity="0.3"/>
    <path d="M407.694,536.43 C394.638,547.653 374.711,547.653 363.488,536.422 C352.415,525.342 354.222,507.7 367.224,497.003 C380.065,486.454 399.249,486.44 410.376,497 C421.639,507.696 420.571,525.342 407.694,536.43 z" fill-opacity="0" stroke="#00A3DA" stroke-width="0.519" opacity="0.3"/>
    <path d="M468.837,596 C455.741,608.063 435.083,608.063 423.017,595.993 C411.13,584.092 412.335,565.155 425.405,553.684 C438.296,542.367 458.158,542.36 470.084,553.677 C482.169,565.151 481.753,584.095 468.837,596 z" fill-opacity="0" stroke="#00A3DA" stroke-width="0.519" opacity="0.45"/>
    <path d="M407.694,536.43 C394.638,547.653 374.711,547.653 363.488,536.422 C352.415,525.342 354.222,507.7 367.224,497.003 C380.065,486.454 399.249,486.44 410.376,497 C421.639,507.696 420.571,525.342 407.694,536.43 z" fill-opacity="0" stroke="#00A3DA" stroke-width="0.519" opacity="0.45"/>
    <g opacity="0.45">
      <path d="M233.182,244.914 L233.182,246.24" fill-opacity="0" stroke="#00A3DA" stroke-width="0.519"/>
      <path d="M233.182,248.77 L233.182,272.791" fill-opacity="0" stroke="#00A3DA" stroke-width="0.519" stroke-dasharray="0.706,0.706"/>
      <path d="M233.182,274.058 L233.182,275.381" fill-opacity="0" stroke="#00A3DA" stroke-width="0.519"/>
    </g>
    <g opacity="0.45">
      <path d="M114.822,261.806 L114.822,263.194" fill-opacity="0" stroke="#00A3DA" stroke-width="0.519"/>
      <path d="M114.822,265.975 L114.822,292.406" fill-opacity="0" stroke="#00A3DA" stroke-width="0.519" stroke-dasharray="0.776,0.776"/>
      <path d="M114.822,293.796 L114.822,295.184" fill-opacity="0" stroke="#00A3DA" stroke-width="0.519"/>
    </g>
    <g opacity="0.45">
      <path d="M418.142,484.799 L418.142,486.187" fill-opacity="0" stroke="#00A3DA" stroke-width="0.519"/>
      <path d="M418.142,488.968 L418.142,515.4" fill-opacity="0" stroke="#00A3DA" stroke-width="0.519" stroke-dasharray="0.776,0.776"/>
      <path d="M418.142,516.789 L418.142,518.177" fill-opacity="0" stroke="#00A3DA" stroke-width="0.519"/>
    </g>
    <g opacity="0.45">
      <path d="M356.209,484.799 L356.209,486.187" fill-opacity="0" stroke="#00A3DA" stroke-width="0.519"/>
      <path d="M356.209,488.968 L356.209,515.4" fill-opacity="0" stroke="#00A3DA" stroke-width="0.519" stroke-dasharray="0.776,0.776"/>
      <path d="M356.209,516.789 L356.209,518.177" fill-opacity="0" stroke="#00A3DA" stroke-width="0.519"/>
    </g>
    <g opacity="0.45">
      <path d="M478.844,544.847 L478.844,546.234" fill-opacity="0" stroke="#00A3DA" stroke-width="0.519"/>
      <path d="M478.844,549.015 L478.844,575.446" fill-opacity="0" stroke="#00A3DA" stroke-width="0.519" stroke-dasharray="0.776,0.776"/>
      <path d="M478.844,576.837 L478.844,578.224" fill-opacity="0" stroke="#00A3DA" stroke-width="0.519"/>
    </g>
    <g opacity="0.45">
      <path d="M414.803,547.83 L414.803,549.218" fill-opacity="0" stroke="#00A3DA" stroke-width="0.519"/>
      <path d="M414.803,551.999 L414.803,578.43" fill-opacity="0" stroke="#00A3DA" stroke-width="0.519" stroke-dasharray="0.776,0.776"/>
      <path d="M414.803,579.82 L414.803,581.208" fill-opacity="0" stroke="#00A3DA" stroke-width="0.519"/>
    </g>
    <path d="M177.239,307.89 C171.336,302.163 173.624,292.944 182.259,287.322 C190.808,281.76 202.479,281.753 208.418,287.325 C214.417,292.944 212.387,302.156 203.799,307.89 C195.128,313.685 183.198,313.685 177.239,307.89 z M130.203,307.901 C124.495,302.156 127.102,292.944 135.916,287.329 C144.644,281.764 156.319,281.76 162.078,287.332 C167.883,292.948 165.542,302.16 156.771,307.897 C147.914,313.685 135.962,313.688 130.203,307.901 z M140.194,271.877 C134.596,266.427 137.059,257.685 145.619,252.342 C154.099,247.049 165.477,247.049 171.125,252.342 C176.816,257.681 174.596,266.427 166.076,271.874 C157.474,277.371 145.852,277.371 140.194,271.877 z M216.292,252.349 C222.158,257.685 220.244,266.423 211.892,271.881 C203.487,277.374 191.858,277.378 186.017,271.877 C180.229,266.427 182.413,257.685 190.782,252.349 C199.098,247.049 210.462,247.049 216.292,252.349 z M221.818,248.781 C203.648,232.365 168.306,232.362 141.89,248.781 C114.809,265.613 106.426,293.798 124.19,311.781 C142.413,330.219 180.369,330.23 207.873,311.777 C234.666,293.794 240.443,265.606 221.818,248.781 z" fill-opacity="0" stroke="#00A3DA" stroke-width="0.519" opacity="0.45"/>
    <path d="M167.536,301.408 C181.902,300.412 194.969,295.257 207.109,287.788 C233.902,269.805 239.679,241.617 221.054,224.792 C202.885,208.376 167.543,208.372 141.126,224.792 C114.046,241.624 105.662,269.809 123.426,287.792 C129.492,293.755 137.147,297.606 145.37,299.678 C148.898,300.567 152.555,300.831 156.147,301.408 z M129.44,283.912 C123.731,278.167 126.338,268.955 135.152,263.34 C143.88,257.775 155.555,257.771 161.314,263.343 C167.12,268.959 164.778,278.171 156.007,283.908 C147.15,289.696 135.199,289.699 129.44,283.912 z M176.475,283.901 C170.573,278.174 172.861,268.955 181.495,263.333 C190.044,257.771 201.716,257.764 207.654,263.336 C213.653,268.955 211.624,278.167 203.035,283.901 C194.365,289.696 182.435,289.696 176.475,283.901 z M185.253,247.888 C179.466,242.438 181.65,233.696 190.019,228.36 C198.334,223.06 209.698,223.06 215.529,228.36 C221.395,233.696 219.48,242.434 211.129,247.892 C202.724,253.385 191.095,253.389 185.253,247.888 z M139.43,247.888 C133.832,242.438 136.296,233.696 144.855,228.353 C153.336,223.06 164.714,223.06 170.361,228.353 C176.052,233.692 173.832,242.438 165.313,247.885 C156.71,253.382 145.088,253.382 139.43,247.888 z" fill="#00A3DA" opacity="0.3"/>
    <path d="M176.975,284.401 C171.073,278.674 173.361,269.455 181.995,263.832 C190.544,258.271 202.216,258.264 208.154,263.836 C214.153,269.455 212.124,278.667 203.535,284.401 C194.865,290.196 182.935,290.196 176.975,284.401 z M129.94,284.412 C124.231,278.667 126.838,269.455 135.652,263.84 C144.38,258.274 156.055,258.271 161.814,263.843 C167.62,269.459 165.278,278.671 156.507,284.408 C147.65,290.196 135.699,290.199 129.94,284.412 z M139.93,248.388 C134.332,242.938 136.796,234.196 145.355,228.853 C153.836,223.56 165.214,223.56 170.861,228.853 C176.552,234.192 174.332,242.938 165.812,248.385 C157.21,253.882 145.588,253.882 139.93,248.388 z M216.029,228.86 C221.895,234.196 219.98,242.934 211.629,248.392 C203.223,253.885 191.595,253.889 185.753,248.388 C179.966,242.938 182.15,234.196 190.519,228.86 C198.834,223.56 210.198,223.56 216.029,228.86 z M221.554,225.292 C203.385,208.876 168.043,208.872 141.626,225.292 C114.546,242.124 106.162,270.309 123.926,288.291 C142.15,306.73 180.106,306.741 207.609,288.288 C234.402,270.305 240.179,242.117 221.554,225.292 z" fill-opacity="0" stroke="#00A3DA" stroke-width="0.519"/>
    <g>
      <path d="M471.229,132.758 L461.373,132.758 L461.373,142.221 L471.229,142.221 z M471.229,127.635 L471.229,132.563 L476.157,132.563 L476.157,152.276 L471.229,152.276 L471.229,157.204 L461.373,157.204 L461.373,152.276 L471.229,152.276 L471.229,147.348 L461.373,147.348 L461.373,142.42 L456.444,142.42 L456.444,132.563 L461.373,132.563 L461.373,127.635 z" fill="#000000"/>
      <path d="M495.87,132.759 L486.013,132.759 L486.013,142.221 L495.87,142.221 z M486.013,142.42 L481.085,142.42 L481.085,132.563 L486.013,132.563 L486.013,127.635 L495.87,127.635 L495.87,132.563 L500.798,132.563 L500.798,147.348 L486.013,147.348 z" fill="#000000"/>
      <path d="M525.437,127.635 L535.293,127.635 L535.293,132.563 L540.222,132.563 L540.222,147.348 L535.293,147.348 L535.293,132.563 L525.437,132.563 L525.437,147.348 L520.509,147.348 L520.509,132.563 L510.653,132.563 L510.653,147.348 L505.724,147.348 L505.724,127.635 L520.509,127.635 L520.509,132.563 L525.437,132.563 z" fill="#000000"/>
      <path d="M555.006,142.223 L555.006,137.294 L559.934,137.294 L559.934,132.76 L550.078,132.76 L550.078,142.223 z M550.078,142.42 L545.15,142.42 L545.15,132.563 L550.078,132.563 L550.078,127.635 L564.863,127.635 L564.863,137.492 L559.934,137.492 L559.934,142.42 L564.863,142.42 L564.863,147.348 L550.078,147.348 z" fill="#000000"/>
      <path d="M589.504,132.563 L579.647,132.563 L579.647,137.491 L589.504,137.491 L589.504,142.42 L584.575,142.42 L584.575,147.348 L569.791,147.348 L569.791,142.42 L579.647,142.42 L579.647,137.491 L569.791,137.491 L569.791,132.563 L574.719,132.563 L574.719,127.635 L589.504,127.635 z" fill="#000000"/>
      <path d="M609.216,127.635 L609.216,132.563 L604.288,132.563 L604.288,147.348 L599.36,147.348 L599.36,132.563 L594.432,132.563 L594.432,127.635 L599.36,127.635 L599.36,122.707 L604.288,122.707 L604.288,127.635 z" fill="#000000"/>
      <path d="M614.144,132.563 L619.073,132.563 L619.073,147.348 L614.144,147.348 z M614.144,147.348 M614.144,122.707 L619.073,122.707 L619.073,127.635 L614.144,127.635 z" fill="#000000"/>
      <path d="M643.714,147.348 L628.929,147.348 L628.929,142.42 L624.001,142.42 L624.001,132.563 L628.929,132.563 L628.929,127.635 L643.714,127.635 L643.714,132.563 L628.929,132.563 L628.929,142.42 L643.714,142.42 z" fill="#000000"/>
      <path d="M663.426,147.348 L663.426,137.491 L658.498,137.491 L658.498,142.42 L653.57,142.42 L653.57,147.348 L648.642,147.348 L648.642,122.707 L653.57,122.707 L653.57,137.491 L658.498,137.491 L658.498,132.563 L663.426,132.563 L663.426,127.635 L668.354,127.635 L668.354,132.563 L663.426,132.563 L663.426,137.491 L668.354,137.491 L668.354,147.348 z" fill="#000000"/>
      <path d="M678.211,127.635 L678.211,132.563 L683.139,132.563 L683.139,127.635 L688.067,127.635 L688.067,132.563 L683.139,132.563 L683.139,137.491 L678.211,137.491 L678.211,147.348 L673.283,147.348 L673.283,127.635 z" fill="#000000"/>
      <path d="M490.436,165.663 L489.929,165.663 C487.934,165.663 486.936,166.747 486.936,168.761 L486.936,171.91 L490.454,171.91 C492.536,171.91 493.411,171.736 493.411,169.724 L493.411,167.851 C493.411,165.838 492.536,165.663 490.436,165.663 M490.454,172.82 L486.936,172.82 L486.936,175.394 C486.936,175.743 486.83,176.005 486.445,176.005 C486.114,176.005 486.026,175.743 486.026,175.394 L486.026,165.226 C486.026,164.91 486.114,164.631 486.481,164.631 C486.814,164.631 486.936,164.84 486.936,165.243 L486.936,165.855 C487.635,165.102 488.721,164.752 489.929,164.752 L490.436,164.752 C492.852,164.752 494.321,165.208 494.321,167.833 L494.321,169.74 C494.321,172.365 492.852,172.82 490.454,172.82" fill="#4D4E4C"/>
      <path d="M505.959,172.82 L504.577,172.82 L502.353,166.276 L499.956,172.82 L498.574,172.82 L496.018,165.19 C495.949,164.98 495.949,164.98 495.949,164.874 C495.949,164.631 496.14,164.543 496.368,164.543 C496.579,164.543 496.753,164.631 496.859,164.928 L499.309,171.98 L501.864,165.016 C501.968,164.753 502.074,164.647 502.371,164.647 C502.669,164.647 502.757,164.753 502.844,165.016 L505.294,171.98 L507.832,164.928 C507.937,164.647 508.111,164.543 508.321,164.543 C508.549,164.543 508.742,164.631 508.742,164.874 C508.742,164.98 508.742,164.98 508.672,165.19 z" fill="#4D4E4C"/>
      <path d="M511.472,168.778 L511.472,172.348 C511.472,172.733 511.35,172.943 511.016,172.943 C510.649,172.943 510.561,172.663 510.561,172.348 L510.561,165.242 C510.561,164.893 510.649,164.631 510.982,164.631 C511.366,164.631 511.472,164.911 511.472,165.26 L511.472,165.855 C512.172,165.102 513.256,164.753 514.464,164.753 L514.971,164.753 C517.387,164.753 518.857,165.208 518.857,167.834 L518.857,172.348 C518.857,172.681 518.769,172.943 518.419,172.943 C518.228,172.943 517.946,172.873 517.946,172.348 L517.946,167.85 C517.946,165.837 517.072,165.663 514.971,165.663 L514.464,165.663 C512.47,165.663 511.472,166.765 511.472,168.778" fill="#4D4E4C"/>
      <path d="M521.359,172.471 L521.359,165.119 C521.359,164.612 521.639,164.542 521.815,164.542 C521.99,164.542 522.27,164.612 522.27,165.119 L522.27,172.471 C522.27,172.75 522.182,173.031 521.797,173.031 C521.621,173.031 521.359,172.944 521.359,172.471 M522.707,162.302 C522.707,162.723 522.146,163.021 521.815,163.021 C521.465,163.021 520.922,162.723 520.922,162.302 C520.922,161.865 521.465,161.585 521.815,161.585 C522.146,161.585 522.707,161.865 522.707,162.302" fill="#4D4E4C"/>
      <path d="M525.77,168.778 L525.77,172.348 C525.77,172.733 525.648,172.943 525.315,172.943 C524.947,172.943 524.859,172.663 524.859,172.348 L524.859,165.242 C524.859,164.893 524.947,164.631 525.281,164.631 C525.664,164.631 525.77,164.911 525.77,165.26 L525.77,165.855 C526.47,165.102 527.555,164.753 528.762,164.753 L529.27,164.753 C531.685,164.753 533.155,165.208 533.155,167.834 L533.155,172.348 C533.155,172.681 533.067,172.943 532.718,172.943 C532.526,172.943 532.244,172.873 532.244,172.348 L532.244,167.85 C532.244,165.837 531.37,165.663 529.27,165.663 L528.762,165.663 C526.768,165.663 525.77,166.765 525.77,168.778" fill="#4D4E4C"/>
      <path d="M542.833,168.743 C542.833,166.748 541.835,165.662 539.84,165.662 L539.333,165.662 C537.233,165.662 536.358,165.838 536.358,167.85 L536.358,169.723 C536.358,171.736 537.233,171.911 539.333,171.911 L542.833,171.911 z M542.15,176.408 L537.197,176.408 C535.623,176.408 535.448,175.375 535.448,174.449 C535.448,174.133 535.535,173.836 535.903,173.836 C536.218,173.836 536.358,174.028 536.358,174.413 C536.358,175.253 536.62,175.499 537.32,175.499 L542.028,175.499 C542.711,175.499 542.833,175.305 542.833,174.623 L542.833,172.82 L539.333,172.82 C536.917,172.82 535.448,172.365 535.448,169.741 L535.448,167.832 C535.448,165.207 536.917,164.752 539.333,164.752 L539.84,164.752 C541.048,164.752 542.132,165.103 542.833,165.856 L542.833,165.243 C542.833,164.84 542.955,164.63 543.288,164.63 C543.655,164.63 543.743,164.91 543.743,165.225 L543.743,174.343 C543.743,175.796 543.428,176.408 542.15,176.408" fill="#4D4E4C"/>
      <path d="M560.158,172.82 L558.777,172.82 L556.553,166.276 L554.155,172.82 L552.773,172.82 L550.218,165.19 C550.148,164.98 550.148,164.98 550.148,164.874 C550.148,164.631 550.34,164.543 550.567,164.543 C550.779,164.543 550.953,164.631 551.058,164.928 L553.508,171.98 L556.064,165.016 C556.167,164.753 556.273,164.647 556.571,164.647 C556.868,164.647 556.956,164.753 557.044,165.016 L559.494,171.98 L562.031,164.928 C562.137,164.647 562.311,164.543 562.52,164.543 C562.748,164.543 562.942,164.631 562.942,164.874 C562.942,164.98 562.942,164.98 562.872,165.19 z" fill="#4D4E4C"/>
      <path d="M564.761,172.471 L564.761,165.119 C564.761,164.612 565.041,164.542 565.216,164.542 C565.392,164.542 565.672,164.612 565.672,165.119 L565.672,172.471 C565.672,172.75 565.584,173.031 565.198,173.031 C565.023,173.031 564.761,172.944 564.761,172.471 M566.109,162.302 C566.109,162.723 565.548,163.021 565.216,163.021 C564.867,163.021 564.324,162.723 564.324,162.302 C564.324,161.865 564.867,161.585 565.216,161.585 C565.548,161.585 566.109,161.865 566.109,162.302" fill="#4D4E4C"/>
      <path d="M572.059,171.91 C572.408,171.91 572.672,171.998 572.672,172.33 C572.672,172.715 572.408,172.821 572.059,172.821 C569.801,172.821 568.331,172.348 568.331,169.74 L568.331,165.645 C568.016,165.628 567.788,165.524 567.788,165.172 C567.788,164.893 567.982,164.771 568.331,164.753 L568.331,162.932 C568.331,162.583 568.419,162.303 568.751,162.303 C569.136,162.303 569.242,162.583 569.242,162.932 L569.242,164.753 L571.656,164.753 C572.007,164.753 572.286,164.857 572.286,165.242 C572.286,165.576 572.007,165.663 571.656,165.663 L569.242,165.663 L569.242,169.722 C569.242,171.735 570.116,171.91 572.059,171.91" fill="#4D4E4C"/>
      <path d="M575.209,168.778 L575.209,172.348 C575.209,172.733 575.087,172.943 574.754,172.943 C574.387,172.943 574.299,172.663 574.299,172.348 L574.299,162.197 C574.299,161.848 574.387,161.568 574.72,161.568 C575.103,161.568 575.209,161.848 575.209,162.197 L575.209,165.855 C575.91,165.102 576.994,164.753 578.202,164.753 L578.709,164.753 C581.125,164.753 582.594,165.208 582.594,167.834 L582.594,172.348 C582.594,172.681 582.506,172.943 582.157,172.943 C581.965,172.943 581.684,172.873 581.684,172.348 L581.684,167.85 C581.684,165.837 580.809,165.663 578.709,165.663 L578.202,165.663 C576.207,165.663 575.209,166.765 575.209,168.778" fill="#4D4E4C"/>
      <path d="M594.092,165.663 L593.585,165.663 C591.591,165.663 590.592,166.747 590.592,168.761 L590.592,171.91 L594.11,171.91 C596.193,171.91 597.067,171.736 597.067,169.724 L597.067,167.851 C597.067,165.838 596.193,165.663 594.092,165.663 M594.11,172.82 L590.592,172.82 L590.592,175.394 C590.592,175.743 590.487,176.005 590.101,176.005 C589.77,176.005 589.682,175.743 589.682,175.394 L589.682,165.226 C589.682,164.91 589.77,164.631 590.137,164.631 C590.471,164.631 590.592,164.84 590.592,165.243 L590.592,165.855 C591.291,165.102 592.377,164.752 593.585,164.752 L594.092,164.752 C596.508,164.752 597.977,165.208 597.977,167.833 L597.977,169.74 C597.977,172.365 596.508,172.82 594.11,172.82" fill="#4D4E4C"/>
      <path d="M601.268,168.778 L601.268,172.348 C601.268,172.733 601.146,172.943 600.812,172.943 C600.445,172.943 600.357,172.663 600.357,172.348 L600.357,165.242 C600.357,164.893 600.445,164.631 600.778,164.631 C601.162,164.631 601.268,164.911 601.268,165.26 L601.268,165.855 C601.968,165.102 603,164.753 604.085,164.753 L604.889,164.753 C605.275,164.753 605.502,164.875 605.502,165.208 C605.502,165.382 605.432,165.663 604.889,165.663 L604.085,165.663 C602.266,165.663 601.268,166.765 601.268,168.778" fill="#4D4E4C"/>
      <path d="M610.613,165.663 C608.53,165.663 607.656,165.855 607.62,167.623 L614.095,167.623 C614.061,165.855 613.186,165.663 611.12,165.663 z M615.005,168.534 L607.62,168.534 L607.62,169.724 C607.62,171.736 608.495,171.91 610.613,171.91 L612.959,171.91 C613.727,171.91 613.921,171.596 613.921,170.826 C613.921,170.319 614.201,170.249 614.376,170.249 C614.69,170.249 614.831,170.458 614.831,170.878 C614.831,171.806 614.656,172.82 613.08,172.82 L610.613,172.82 C608.181,172.82 606.71,172.365 606.71,169.74 L606.71,167.833 C606.71,165.208 608.181,164.752 610.613,164.752 L611.12,164.752 C613.536,164.752 615.005,165.208 615.005,167.833 z" fill="#4D4E4C"/>
      <path d="M620.973,172.82 C618.541,172.82 617.07,172.365 617.07,169.74 L617.07,167.833 C617.07,165.208 618.541,164.753 620.973,164.753 L623.441,164.753 C625.016,164.753 625.192,165.785 625.192,166.713 C625.192,167.029 625.104,167.326 624.737,167.326 C624.561,167.326 624.281,167.256 624.281,166.747 C624.281,165.908 624.018,165.663 623.319,165.663 L620.973,165.663 C618.855,165.663 617.981,165.839 617.981,167.851 L617.981,169.722 C617.981,171.736 618.855,171.91 620.973,171.91 L623.319,171.91 C624.088,171.91 624.281,171.595 624.281,170.826 C624.281,170.319 624.561,170.247 624.737,170.247 C625.05,170.247 625.192,170.459 625.192,170.878 C625.192,171.806 625.016,172.82 623.441,172.82 z" fill="#4D4E4C"/>
      <path d="M627.501,172.471 L627.501,165.119 C627.501,164.612 627.78,164.542 627.956,164.542 C628.132,164.542 628.411,164.612 628.411,165.119 L628.411,172.471 C628.411,172.75 628.323,173.031 627.938,173.031 C627.763,173.031 627.501,172.944 627.501,172.471 M628.849,162.302 C628.849,162.723 628.288,163.021 627.956,163.021 C627.607,163.021 627.064,162.723 627.064,162.302 C627.064,161.865 627.607,161.585 627.956,161.585 C628.288,161.585 628.849,161.865 628.849,162.302" fill="#4D4E4C"/>
      <path d="M630.756,170.878 C630.756,170.459 630.896,170.247 631.211,170.247 C631.526,170.247 631.666,170.441 631.666,170.826 C631.666,171.595 631.858,171.91 632.629,171.91 L636.969,171.91 C637.722,171.91 638.001,171.367 638.001,170.616 C638.001,169.74 637.582,169.145 636.969,169.145 L633.014,169.145 C631.317,169.145 630.756,168.131 630.756,166.871 C630.756,165.575 631.299,164.753 633.188,164.753 L637.127,164.753 C638.702,164.753 638.876,165.785 638.876,166.713 C638.876,167.029 638.788,167.326 638.421,167.326 C638.247,167.326 637.965,167.256 637.965,166.747 C637.965,165.908 637.704,165.663 637.003,165.663 L632.699,165.663 C632.086,165.663 631.666,165.978 631.666,166.871 C631.666,167.779 632.121,168.235 632.699,168.235 L636.672,168.235 C638.456,168.235 638.912,169.46 638.912,170.616 C638.912,171.962 638.335,172.82 636.496,172.82 L632.507,172.82 C630.932,172.82 630.756,171.806 630.756,170.878" fill="#4D4E4C"/>
      <path d="M641.256,172.471 L641.256,165.119 C641.256,164.612 641.536,164.542 641.712,164.542 C641.887,164.542 642.167,164.612 642.167,165.119 L642.167,172.471 C642.167,172.75 642.079,173.031 641.694,173.031 C641.518,173.031 641.256,172.944 641.256,172.471 M642.604,162.302 C642.604,162.723 642.043,163.021 641.712,163.021 C641.362,163.021 640.819,162.723 640.819,162.302 C640.819,161.865 641.362,161.585 641.712,161.585 C642.043,161.585 642.604,161.865 642.604,162.302" fill="#4D4E4C"/>
      <path d="M648.957,171.91 C651.057,171.91 651.932,171.735 651.932,169.722 L651.932,167.85 C651.932,165.837 651.057,165.663 648.957,165.663 L648.45,165.663 C646.331,165.663 645.457,165.837 645.457,167.85 L645.457,169.722 C645.457,171.735 646.331,171.91 648.45,171.91 z M648.45,172.821 C646.016,172.821 644.547,172.366 644.547,169.74 L644.547,167.834 C644.547,165.208 646.016,164.753 648.45,164.753 L648.957,164.753 C651.372,164.753 652.842,165.208 652.842,167.834 L652.842,169.74 C652.842,172.366 651.372,172.821 648.957,172.821 z" fill="#4D4E4C"/>
      <path d="M656.132,168.778 L656.132,172.348 C656.132,172.733 656.01,172.943 655.677,172.943 C655.309,172.943 655.222,172.663 655.222,172.348 L655.222,165.242 C655.222,164.893 655.309,164.631 655.643,164.631 C656.026,164.631 656.132,164.911 656.132,165.26 L656.132,165.855 C656.833,165.102 657.917,164.753 659.125,164.753 L659.632,164.753 C662.048,164.753 663.517,165.208 663.517,167.834 L663.517,172.348 C663.517,172.681 663.429,172.943 663.08,172.943 C662.888,172.943 662.607,172.873 662.607,172.348 L662.607,167.85 C662.607,165.837 661.732,165.663 659.632,165.663 L659.125,165.663 C657.13,165.663 656.132,166.765 656.132,168.778" fill="#4D4E4C"/>
      <path d="M542.071,215.764 C541.236,217.615 540.836,218.441 539.761,220.075 C538.261,222.362 536.146,225.208 533.524,225.231 C531.198,225.253 530.602,223.717 527.44,223.733 C524.281,223.747 523.62,225.256 521.292,225.235 C518.672,225.21 516.668,222.645 515.166,220.358 C510.971,213.972 510.532,206.474 513.122,202.495 C514.959,199.66 517.86,198.004 520.587,198.004 C523.365,198.004 525.111,199.526 527.406,199.526 C529.636,199.526 530.99,198.001 534.202,198.001 C536.63,198.001 539.2,199.323 541.033,201.61 C535.03,204.897 536.005,213.472 542.071,215.764" fill="#ABACAB"/>
      <path d="M531.766,195.449 C532.931,193.951 533.82,191.836 533.497,189.677 C531.593,189.808 529.363,191.021 528.062,192.6 C526.879,194.035 525.904,196.162 526.284,198.232 C528.367,198.295 530.517,197.055 531.766,195.449" fill="#ABACAB"/>
      <path d="M560.76,201.277 C559.579,201.277 558.622,202.25 558.622,203.447 L558.622,211.93 C558.622,213.131 559.579,214.104 560.76,214.104 C561.941,214.104 562.898,213.131 562.898,211.93 L562.898,203.447 C562.898,202.25 561.941,201.277 560.76,201.277" fill="#A0C03C"/>
      <path d="M564.452,201.403 L564.452,216.757 C564.452,217.671 565.194,218.409 566.105,218.409 L567.992,218.409 L567.992,223.087 C567.992,224.273 568.94,225.235 570.108,225.235 C571.278,225.235 572.228,224.273 572.228,223.087 L572.228,218.409 L575.524,218.409 L575.524,223.087 C575.524,224.273 576.47,225.235 577.64,225.235 C578.81,225.235 579.756,224.273 579.756,223.087 L579.756,218.409 L581.645,218.409 C582.557,218.409 583.296,217.671 583.296,216.757 L583.296,201.403 z" fill="#A0C03C"/>
      <path d="M586.99,201.273 C585.81,201.273 584.852,202.246 584.852,203.447 L584.852,211.934 C584.852,213.135 585.81,214.108 586.99,214.108 C588.171,214.108 589.126,213.135 589.126,211.934 L589.126,203.447 C589.126,202.246 588.171,201.273 586.99,201.273" fill="#A0C03C"/>
      <path d="M577.98,197.248 C577.403,197.248 576.937,196.782 576.937,196.209 C576.937,195.632 577.403,195.166 577.98,195.166 C578.555,195.166 579.023,195.632 579.023,196.209 C579.023,196.782 578.555,197.248 577.98,197.248 M569.9,197.248 C569.326,197.248 568.857,196.782 568.857,196.209 C568.857,195.632 569.324,195.166 569.9,195.166 C570.475,195.166 570.941,195.632 570.941,196.209 C570.941,196.782 570.475,197.248 569.9,197.248 M578.817,193.52 L580.607,190.892 C580.849,190.538 580.758,190.051 580.403,189.811 C580.046,189.569 579.563,189.66 579.322,190.017 L577.369,192.886 C576.287,192.512 575.111,192.295 573.875,192.295 C572.638,192.295 571.462,192.512 570.38,192.882 L568.428,190.017 C568.185,189.66 567.703,189.569 567.346,189.811 C566.991,190.051 566.9,190.538 567.142,190.892 L568.934,193.52 C566.427,194.861 564.685,197.171 564.452,199.855 L583.295,199.855 C583.062,197.167 581.322,194.861 578.817,193.52" fill="#A0C03C"/>
      <path d="M638.681,208.456 L638.676,225.235 L619.467,222.527 L619.44,208.423 z M619.467,192.481 L638.676,189.676 L638.676,206.534 L619.467,206.689 z M617.71,208.323 L617.723,222.308 L603.243,220.317 L603.241,208.232 z M603.231,194.71 L617.719,192.739 L617.725,206.712 L603.245,206.796 z" fill="#5A9DC9"/>
    </g>
  </g>
  <defs/>
</svg>
