<?xml version="1.0" encoding="UTF-8"?>
<!DOCTYPE svg PUBLIC "-//W3C//DTD SVG 1.1//EN" "http://www.w3.org/Graphics/SVG/1.1/DTD/svg11.dtd">
<svg version="1.1" xmlns="http://www.w3.org/2000/svg" xmlns:xlink="http://www.w3.org/1999/xlink" x="0px" y="0px" width="800" height="800" viewBox="0, 0, 800, 800">
  <g id="Layer 1">
    <path d="M190.928,117.126 C190.153,117.574 189.956,118.302 190.494,118.754 L191.096,119.256 L234.094,94.535 L233.488,94.051 C232.943,93.624 231.881,93.624 231.136,94.051 L190.928,117.126 z" fill-opacity="0" stroke="#8A8B8A" stroke-width="0.519"/>
    <path d="M213.343,104.26 L190.565,117.406 C190.304,117.668 190.178,117.976 190.225,118.249 L232.835,93.779 C232.305,93.668 231.645,93.757 231.136,94.052 L213.343,104.26 z" fill-opacity="0" stroke="#8A8B8A" stroke-width="0.519"/>
    <path d="M84.247,333.091 C83.279,333.711 82.978,334.726 83.562,335.346 L83.594,335.378 L96.5,348.89 C97.16,349.202 98.138,349.109 98.92,348.599 L100.989,347.244 L86.309,331.768 L84.247,333.091 z" fill-opacity="0" stroke="#8A8B8A" stroke-width="0.519"/>
    <path d="M83.562,335.348 L83.59,335.38 L96.499,348.891 C96.901,349.078 97.417,349.117 97.941,349.006 L83.544,333.773 C83.185,334.318 83.164,334.924 83.562,335.348" fill-opacity="0" stroke="#8A8B8A" stroke-width="0.519"/>
    <path d="M120.997,371.931 C120.018,372.591 119.735,373.659 120.352,374.316 L120.388,374.348 L133.996,388.605 C134.688,388.935 135.688,388.835 136.477,388.293 L138.571,386.866 L123.077,370.533 L120.997,371.931 z" fill-opacity="0" stroke="#8A8B8A" stroke-width="0.519"/>
    <path d="M120.352,374.315 L120.384,374.347 L133.999,388.604 C134.415,388.805 134.953,388.845 135.484,388.73 L120.291,372.655 C119.936,373.221 119.929,373.863 120.352,374.315" fill-opacity="0" stroke="#8A8B8A" stroke-width="0.519"/>
    <path d="M44.735,291.194 C43.785,291.775 43.459,292.739 44.011,293.324 L60.327,310.604 C60.893,311.206 62.145,311.206 63.106,310.604 L65.042,309.388 L46.665,290.011 L44.735,291.194 z" fill-opacity="0" stroke="#8A8B8A" stroke-width="0.519"/>
    <path d="M44.011,293.323 L44.029,293.341 L60.369,310.632 C60.825,311.116 61.617,311.081 62.13,310.973 L44.039,291.839 C43.677,292.345 43.631,292.922 44.011,293.323" fill-opacity="0" stroke="#8A8B8A" stroke-width="0.519"/>
    <path d="M767.397,440.057 C795.08,460.948 801.376,496.387 780.17,518.852 L574.39,736.792 C546.23,766.612 498.671,766.615 470.393,736.796 L19.991,261.899 C4.891,245.981 14.562,220.715 40.599,205.745 L238.662,91.876 C259.883,79.677 289.904,79.677 306.069,91.876 L767.397,440.057 z" fill-opacity="0" stroke="#8A8B8A" stroke-width="0.519"/>
    <path d="M570.201,732.63 C544.214,760.026 500.664,760.03 474.559,732.63 L23.838,259.609 C9.86,244.936 18.656,221.728 42.721,207.858 L240.892,93.635 C260.524,82.318 288.171,82.318 303.113,93.635 L764.456,442.995 C790.019,462.355 795.696,494.915 776.06,515.612 L570.201,732.63 z" fill-opacity="0" stroke="#8A8B8A" stroke-width="0.519"/>
    <path d="M569.037,731.475 C543.675,758.182 501.193,758.182 475.716,731.478 L24.909,258.973 C11.247,244.655 19.824,221.992 43.311,208.441 L241.511,94.118 C260.684,83.063 287.696,83.066 302.287,94.121 L763.637,443.815" fill-opacity="0" stroke="#8A8B8A" stroke-width="0.519"/>
    <path d="M566.726,729.174 C542.6,754.508 502.249,754.508 478.02,729.174 L27.036,257.709 C14.016,244.097 22.138,222.532 44.492,209.623 L242.753,95.102 C261.012,84.553 286.755,84.549 300.643,95.102 L762,445.452 C785.741,463.478 790.926,493.739 772.657,512.927 L566.726,729.174 z" fill-opacity="0" stroke="#8A8B8A" stroke-width="0.519"/>
    <path d="M73.273,277.332 L317.522,127.018 L701.095,422.92 L448.795,661.873 L73.273,277.332 z" fill-opacity="0" stroke="#8A8B8A" stroke-width="0.519"/>
    <path d="M603.208,603.396 C620.843,619.414 648.131,619.414 663.604,603.396 C678.783,587.68 676.42,562.801 658.86,547.819 C641.612,533.103 615.69,533.11 600.439,547.819 C584.906,562.805 585.903,587.672 603.208,603.396" fill-opacity="0" stroke="#8A8B8A" stroke-width="0.519"/>
    <path d="M662.928,602.797 C647.803,618.445 621.042,618.442 603.808,602.8 C586.879,587.438 585.89,563.037 601.076,548.378 C615.986,533.988 641.434,533.984 658.298,548.378 C675.464,563.037 677.769,587.442 662.928,602.797" fill-opacity="0" stroke="#8A8B8A" stroke-width="0.519"/>
    <path d="M613.86,570.909 C611.332,573.397 611.558,577.474 614.384,579.984 L627.694,591.839 C630.567,594.403 634.97,594.399 637.491,591.843 L649.202,579.984 C651.691,577.474 651.364,573.401 648.496,570.905 L635.203,559.344 C632.381,556.884 628.082,556.884 625.589,559.341 L613.86,570.909 z M629.075,590.451 L615.764,578.614 C613.781,576.861 613.624,574.003 615.384,572.26 L627.121,560.678 C628.863,558.953 631.883,558.953 633.858,560.678 L647.151,572.257 C649.159,574.01 649.378,576.861 647.639,578.614 L635.924,590.455 C634.16,592.233 631.083,592.237 629.075,590.451" fill-opacity="0" stroke="#8A8B8A" stroke-width="0.519"/>
    <path d="M157.735,166.902 C159.79,168.724 163.968,168.724 167.055,166.902 C170.132,165.088 170.935,162.151 168.877,160.344 C166.818,158.547 162.677,158.547 159.607,160.344 C156.531,162.151 155.684,165.081 157.735,166.902" fill-opacity="0" stroke="#8A8B8A" stroke-width="0.519"/>
    <path d="M160.692,165.161 C161.663,166.018 163.628,166.018 165.081,165.161 C166.529,164.308 166.917,162.92 165.945,162.074 C164.977,161.22 163.019,161.217 161.567,162.07 C160.118,162.92 159.723,164.308 160.692,165.161" fill-opacity="0" stroke="#8A8B8A" stroke-width="0.519"/>
    <path d="M162.886,164.205 C162.424,163.8 162.61,163.137 163.299,162.732 C163.991,162.327 164.93,162.327 165.389,162.732 C165.852,163.14 165.669,163.8 164.977,164.205 C164.285,164.611 163.349,164.611 162.886,164.205" fill-opacity="0" stroke="#8A8B8A" stroke-width="0.519"/>
    <path d="M162.354,165.06 C162.103,164.841 162.203,164.486 162.576,164.267 C162.949,164.052 163.448,164.052 163.699,164.267 C163.946,164.489 163.846,164.841 163.473,165.06 C163.107,165.278 162.605,165.278 162.354,165.06" fill-opacity="0" stroke="#8A8B8A" stroke-width="0.519"/>
    <path d="M240.887,93.633 C260.52,82.317 288.116,82.32 303.001,93.644 L305.959,91.884 C289.855,79.681 259.885,79.674 238.668,91.869 L240.887,93.633 z" fill-opacity="0" stroke="#8A8B8A" stroke-width="0.519"/>
    <path d="M23.858,259.524 C9.877,244.854 18.673,221.683 42.727,207.859 L40.604,205.751 C14.574,220.675 4.91,245.887 20.01,261.805 L23.858,259.524 z" fill-opacity="0" stroke="#8A8B8A" stroke-width="0.519"/>
    <path d="M474.619,732.554 C500.731,759.954 544.202,759.939 570.102,732.533 L574.294,736.7 C546.221,766.526 498.744,766.544 470.463,736.721 L474.619,732.554 z" fill-opacity="0" stroke="#8A8B8A" stroke-width="0.519"/>
    <path d="M153.717,185.939 C150.569,187.814 149.687,190.891 151.77,192.784 L151.874,192.881 C153.965,194.778 158.264,194.778 161.416,192.881 L203.478,167.587 C206.501,165.772 207.229,162.814 205.116,161.007 L205.009,160.913 C202.9,159.117 198.723,159.117 195.704,160.913 L153.717,185.939 z" fill-opacity="0" stroke="#8A8B8A" stroke-width="0.519"/>
    <path d="M201.167,165.608 L159.127,190.817 C158.962,190.924 158.779,191.003 158.593,191.082 L159.414,193.789 C160.106,193.56 160.787,193.259 161.418,192.882 L203.473,167.591 C204.237,167.132 204.85,166.602 205.316,166.028 L201.924,164.945 C201.738,165.189 201.487,165.415 201.167,165.608" fill-opacity="0" stroke="#8A8B8A" stroke-width="0.519"/>
    <path d="M201.923,164.943 L205.319,166.03 C206.499,164.577 206.653,162.896 205.663,161.601 L201.83,162.975 C202.44,163.494 202.436,164.276 201.923,164.943" fill-opacity="0" stroke="#8A8B8A" stroke-width="0.519"/>
    <path d="M158.987,190.689 C157.746,191.435 156.003,191.435 155.179,190.689 L155.071,190.592 C154.254,189.846 154.601,188.595 155.842,187.853 L197.85,162.759 C199.041,162.049 200.747,162.053 201.576,162.759 L201.683,162.856 C202.515,163.566 202.218,164.767 201.027,165.484 L158.987,190.689 z" fill-opacity="0" stroke="#8A8B8A" stroke-width="0.519"/>
    <path d="M155.845,187.854 C154.605,188.597 154.253,189.848 155.071,190.59 L155.182,190.691 C156.003,191.433 157.746,191.433 158.99,190.691 L201.03,165.482 C202.214,164.772 202.522,163.564 201.69,162.85 L201.583,162.761 C200.751,162.044 199.037,162.047 197.853,162.761 L155.845,187.854 z" fill-opacity="0" stroke="#8A8B8A" stroke-width="0.519"/>
    <path d="M155.763,191.041 L158.209,191.041 C158.435,190.966 158.657,190.869 158.872,190.758 L155.261,190.758 C155.405,190.873 155.577,190.966 155.763,191.041" fill-opacity="0" stroke="#8A8B8A" stroke-width="0.519"/>
    <path d="M154.818,190.286 L159.659,190.286 L160.136,190.002 L154.686,190.002 C154.718,190.099 154.757,190.196 154.818,190.286" fill-opacity="0" stroke="#8A8B8A" stroke-width="0.519"/>
    <path d="M154.633,189.53 L160.919,189.53 L161.396,189.246 L154.68,189.246 C154.655,189.34 154.637,189.44 154.633,189.53" fill-opacity="0" stroke="#8A8B8A" stroke-width="0.519"/>
    <path d="M154.882,188.777 L162.176,188.777 L162.649,188.494 L155.087,188.491 C155.008,188.584 154.94,188.681 154.882,188.777" fill-opacity="0" stroke="#8A8B8A" stroke-width="0.519"/>
    <path d="M155.845,187.854 C155.756,187.912 155.67,187.966 155.591,188.023 L163.437,188.027 L163.91,187.743 L156.043,187.743 L155.845,187.858 L155.845,187.854 z" fill-opacity="0" stroke="#8A8B8A" stroke-width="0.519"/>
    <path d="M156.824,187.269 L164.688,187.273 L165.161,186.99 L157.298,186.99 L156.824,187.269 z" fill-opacity="0" stroke="#8A8B8A" stroke-width="0.519"/>
    <path d="M158.079,186.52 L165.942,186.52 L166.419,186.234 L158.563,186.234 L158.079,186.52 z" fill-opacity="0" stroke="#8A8B8A" stroke-width="0.519"/>
    <path d="M159.341,185.768 L167.194,185.768 L167.667,185.485 L159.814,185.485 L159.341,185.768 z" fill-opacity="0" stroke="#8A8B8A" stroke-width="0.519"/>
    <path d="M160.593,185.019 L168.443,185.019 L168.92,184.733 L161.067,184.736 L160.593,185.019 z" fill-opacity="0" stroke="#8A8B8A" stroke-width="0.519"/>
    <path d="M161.847,184.271 L169.696,184.267 L170.166,183.988 L162.324,183.988 L161.847,184.271 z" fill-opacity="0" stroke="#8A8B8A" stroke-width="0.519"/>
    <path d="M163.101,183.522 L170.943,183.522 L171.413,183.239 L163.575,183.239 L163.101,183.522 z" fill-opacity="0" stroke="#8A8B8A" stroke-width="0.519"/>
    <path d="M164.351,182.773 L172.19,182.773 L172.66,182.494 L164.821,182.494 L164.351,182.773 z" fill-opacity="0" stroke="#8A8B8A" stroke-width="0.519"/>
    <path d="M165.601,182.028 L173.433,182.028 L173.899,181.745 L166.075,181.745 L165.601,182.028 z" fill-opacity="0" stroke="#8A8B8A" stroke-width="0.519"/>
    <path d="M166.846,181.283 L174.678,181.28 L175.148,181 L167.32,181 L166.846,181.283 z" fill-opacity="0" stroke="#8A8B8A" stroke-width="0.519"/>
    <path d="M168.095,180.538 L175.923,180.538 L176.389,180.255 L168.565,180.259 L168.095,180.538 z" fill-opacity="0" stroke="#8A8B8A" stroke-width="0.519"/>
    <path d="M169.34,179.794 L177.164,179.794 L177.63,179.51 L169.809,179.514 L169.34,179.794 z" fill-opacity="0" stroke="#8A8B8A" stroke-width="0.519"/>
    <path d="M170.582,179.052 L178.399,179.048 L178.869,178.769 L171.052,178.772 L170.582,179.052 z" fill-opacity="0" stroke="#8A8B8A" stroke-width="0.519"/>
    <path d="M171.825,178.31 L179.635,178.307 L180.105,178.027 L172.295,178.027 L171.825,178.31 z" fill-opacity="0" stroke="#8A8B8A" stroke-width="0.519"/>
    <path d="M173.072,177.565 L180.872,177.565 L181.341,177.286 L173.539,177.286 L173.072,177.565 z" fill-opacity="0" stroke="#8A8B8A" stroke-width="0.519"/>
    <path d="M174.309,176.824 L182.109,176.824 L182.575,176.548 L174.776,176.548 L174.309,176.824 z" fill-opacity="0" stroke="#8A8B8A" stroke-width="0.519"/>
    <path d="M175.547,176.086 L183.343,176.086 L183.809,175.807 L176.013,175.81 L175.547,176.086 z" fill-opacity="0" stroke="#8A8B8A" stroke-width="0.519"/>
    <path d="M176.784,175.348 L184.573,175.348 L185.039,175.069 L177.251,175.069 L176.784,175.348 z" fill-opacity="0" stroke="#8A8B8A" stroke-width="0.519"/>
    <path d="M178.017,174.611 L185.805,174.607 L186.268,174.331 L178.483,174.331 L178.017,174.611 z" fill-opacity="0" stroke="#8A8B8A" stroke-width="0.519"/>
    <path d="M179.252,173.873 L187.037,173.869 L187.5,173.593 L179.718,173.593 L179.252,173.873 z" fill-opacity="0" stroke="#8A8B8A" stroke-width="0.519"/>
    <path d="M180.484,173.135 L188.262,173.135 L188.725,172.859 L180.95,172.859 L180.484,173.135 z" fill-opacity="0" stroke="#8A8B8A" stroke-width="0.519"/>
    <path d="M181.714,172.401 L189.485,172.401 L189.947,172.125 L182.18,172.125 L181.714,172.401 z" fill-opacity="0" stroke="#8A8B8A" stroke-width="0.519"/>
    <path d="M182.945,171.667 L190.715,171.667 L191.174,171.391 L183.411,171.391 L182.945,171.667 z" fill-opacity="0" stroke="#8A8B8A" stroke-width="0.519"/>
    <path d="M184.173,170.933 L191.937,170.933 L192.396,170.656 L184.64,170.656 L184.173,170.933 z" fill-opacity="0" stroke="#8A8B8A" stroke-width="0.519"/>
    <path d="M185.398,170.202 L193.158,170.199 L193.62,169.922 L185.861,169.922 L185.398,170.202 z" fill-opacity="0" stroke="#8A8B8A" stroke-width="0.519"/>
    <path d="M186.623,169.468 L194.379,169.468 L194.841,169.192 L187.085,169.192 L186.623,169.468 z" fill-opacity="0" stroke="#8A8B8A" stroke-width="0.519"/>
    <path d="M187.847,168.737 L195.6,168.737 L196.063,168.461 L188.31,168.461 L187.847,168.737 z" fill-opacity="0" stroke="#8A8B8A" stroke-width="0.519"/>
    <path d="M189.069,168.007 L196.818,168.007 L197.277,167.731 L189.531,167.731 L189.069,168.007 z" fill-opacity="0" stroke="#8A8B8A" stroke-width="0.519"/>
    <path d="M190.292,167.277 L198.037,167.277 L198.492,167.001 L190.754,167.001 L190.292,167.277 z" fill-opacity="0" stroke="#8A8B8A" stroke-width="0.519"/>
    <path d="M191.509,166.55 L199.247,166.55 L199.706,166.274 L191.972,166.277 L191.509,166.55 z" fill-opacity="0" stroke="#8A8B8A" stroke-width="0.519"/>
    <path d="M192.727,165.823 L200.468,165.819 L200.92,165.547 L193.189,165.547 L192.727,165.823 z" fill-opacity="0" stroke="#8A8B8A" stroke-width="0.519"/>
    <path d="M193.944,165.092 L201.539,165.092 C201.629,165.01 201.715,164.913 201.787,164.82 L194.4,164.823 L193.944,165.092 z" fill-opacity="0" stroke="#8A8B8A" stroke-width="0.519"/>
    <path d="M195.156,164.369 L202.048,164.369 C202.08,164.279 202.116,164.183 202.13,164.097 L195.618,164.097 L195.156,164.369 z" fill-opacity="0" stroke="#8A8B8A" stroke-width="0.519"/>
    <path d="M196.37,163.642 L202.143,163.646 C202.132,163.553 202.104,163.456 202.064,163.37 L196.832,163.37 L196.37,163.642 z" fill-opacity="0" stroke="#8A8B8A" stroke-width="0.519"/>
    <path d="M197.584,162.919 L201.765,162.919 C201.736,162.897 201.711,162.876 201.689,162.851 L201.582,162.758 C201.532,162.718 201.481,162.686 201.428,162.646 L198.057,162.646 C197.985,162.686 197.917,162.718 197.849,162.761 L197.584,162.919 z" fill-opacity="0" stroke="#8A8B8A" stroke-width="0.519"/>
    <path d="M155.845,187.854 C155.82,187.872 155.784,187.89 155.763,187.912 L155.021,190.54 C155.038,190.555 155.056,190.572 155.074,190.59 L155.182,190.691 C155.232,190.73 155.282,190.773 155.336,190.813 L156.233,187.625 L155.845,187.854 z" fill-opacity="0" stroke="#8A8B8A" stroke-width="0.519"/>
    <path d="M157.017,187.157 L155.909,191.097 C156.024,191.133 156.149,191.166 156.278,191.191 L157.494,186.873 L157.017,187.157 z" fill-opacity="0" stroke="#8A8B8A" stroke-width="0.519"/>
    <path d="M158.277,186.404 L156.914,191.248 C157.047,191.248 157.183,191.241 157.319,191.227 L158.753,186.121 L158.277,186.404 z" fill-opacity="0" stroke="#8A8B8A" stroke-width="0.519"/>
    <path d="M159.534,185.652 L158.006,191.102 C158.157,191.059 158.297,191.016 158.444,190.959 L160.007,185.369 L159.534,185.652 z" fill-opacity="0" stroke="#8A8B8A" stroke-width="0.519"/>
    <path d="M160.788,184.903 L159.21,190.562 L159.683,190.275 L161.257,184.624 L160.788,184.903 z" fill-opacity="0" stroke="#8A8B8A" stroke-width="0.519"/>
    <path d="M162.042,184.154 L160.471,189.798 L160.948,189.515 L162.515,183.871 L162.042,184.154 z" fill-opacity="0" stroke="#8A8B8A" stroke-width="0.519"/>
    <path d="M163.294,183.406 L161.727,189.046 L162.204,188.759 L163.764,183.126 L163.294,183.406 z" fill-opacity="0" stroke="#8A8B8A" stroke-width="0.519"/>
    <path d="M164.544,182.661 L162.981,188.294 L163.458,188.011 L165.018,182.378 L164.544,182.661 z" fill-opacity="0" stroke="#8A8B8A" stroke-width="0.519"/>
    <path d="M165.796,181.912 L164.243,187.538 L164.713,187.255 L166.266,181.632 L165.796,181.912 z" fill-opacity="0" stroke="#8A8B8A" stroke-width="0.519"/>
    <path d="M167.042,181.167 L165.493,186.786 L165.967,186.507 L167.512,180.888 L167.042,181.167 z" fill-opacity="0" stroke="#8A8B8A" stroke-width="0.519"/>
    <path d="M168.291,180.422 L166.746,186.038 L167.215,185.754 L168.761,180.142 L168.291,180.422 z" fill-opacity="0" stroke="#8A8B8A" stroke-width="0.519"/>
    <path d="M169.532,179.681 L167.997,185.286 L168.471,185.006 L170.002,179.398 L169.532,179.681 z" fill-opacity="0" stroke="#8A8B8A" stroke-width="0.519"/>
    <path d="M170.775,178.936 L169.244,184.54 L169.721,184.254 L171.245,178.656 L170.775,178.936 z" fill-opacity="0" stroke="#8A8B8A" stroke-width="0.519"/>
    <path d="M172.02,178.194 L170.492,183.788 L170.965,183.508 L172.489,177.914 L172.02,178.194 z" fill-opacity="0" stroke="#8A8B8A" stroke-width="0.519"/>
    <path d="M173.261,177.453 L171.744,183.043 L172.214,182.76 L173.727,177.173 L173.261,177.453 z" fill-opacity="0" stroke="#8A8B8A" stroke-width="0.519"/>
    <path d="M174.499,176.711 L172.993,182.294 L173.459,182.015 L174.965,176.431 L174.499,176.711 z" fill-opacity="0" stroke="#8A8B8A" stroke-width="0.519"/>
    <path d="M175.738,175.97 L174.232,181.549 L174.702,181.266 L176.204,175.694 L175.738,175.97 z" fill-opacity="0" stroke="#8A8B8A" stroke-width="0.519"/>
    <path d="M176.975,175.232 L175.476,180.805 L175.95,180.521 L177.441,174.956 L176.975,175.232 z" fill-opacity="0" stroke="#8A8B8A" stroke-width="0.519"/>
    <path d="M178.205,174.498 L176.717,180.06 L177.187,179.78 L178.672,174.218 L178.205,174.498 z" fill-opacity="0" stroke="#8A8B8A" stroke-width="0.519"/>
    <path d="M179.445,173.757 L177.957,179.315 L178.43,179.035 L179.911,173.481 L179.445,173.757 z" fill-opacity="0" stroke="#8A8B8A" stroke-width="0.519"/>
    <path d="M180.673,173.022 L179.196,178.57 L179.665,178.294 L181.139,172.746 L180.673,173.022 z" fill-opacity="0" stroke="#8A8B8A" stroke-width="0.519"/>
    <path d="M181.901,172.288 L180.431,177.828 L180.897,177.552 L182.371,172.008 L181.901,172.288 z" fill-opacity="0" stroke="#8A8B8A" stroke-width="0.519"/>
    <path d="M183.134,171.554 L181.667,177.087 L182.137,176.808 L183.6,171.275 L183.134,171.554 z" fill-opacity="0" stroke="#8A8B8A" stroke-width="0.519"/>
    <path d="M184.362,170.82 L182.903,176.346 L183.369,176.07 L184.829,170.544 L184.362,170.82 z" fill-opacity="0" stroke="#8A8B8A" stroke-width="0.519"/>
    <path d="M185.588,170.086 L184.133,175.612 L184.599,175.329 L186.055,169.81 L185.588,170.086 z" fill-opacity="0" stroke="#8A8B8A" stroke-width="0.519"/>
    <path d="M186.815,169.355 L185.363,174.87 L185.829,174.591 L187.274,169.079 L186.815,169.355 z" fill-opacity="0" stroke="#8A8B8A" stroke-width="0.519"/>
    <path d="M188.037,168.625 L186.595,174.133 L187.058,173.857 L188.499,168.349 L188.037,168.625 z" fill-opacity="0" stroke="#8A8B8A" stroke-width="0.519"/>
    <path d="M189.26,167.894 L187.822,173.399 L188.284,173.122 L189.722,167.618 L189.26,167.894 z" fill-opacity="0" stroke="#8A8B8A" stroke-width="0.519"/>
    <path d="M190.477,167.168 L189.05,172.665 L189.512,172.385 L190.939,166.892 L190.477,167.168 z" fill-opacity="0" stroke="#8A8B8A" stroke-width="0.519"/>
    <path d="M191.698,166.437 L190.278,171.931 L190.737,171.651 L192.157,166.165 L191.698,166.437 z" fill-opacity="0" stroke="#8A8B8A" stroke-width="0.519"/>
    <path d="M192.914,165.71 L191.505,171.196 L191.96,170.917 L193.38,165.434 L192.914,165.71 z" fill-opacity="0" stroke="#8A8B8A" stroke-width="0.519"/>
    <path d="M194.133,164.983 L192.72,170.466 L193.182,170.183 L194.592,164.707 L194.133,164.983 z" fill-opacity="0" stroke="#8A8B8A" stroke-width="0.519"/>
    <path d="M195.347,164.256 L193.945,169.732 L194.4,169.452 L195.809,163.984 L195.347,164.256 z" fill-opacity="0" stroke="#8A8B8A" stroke-width="0.519"/>
    <path d="M196.563,163.529 L195.164,169.001 L195.623,168.725 L197.022,163.257 L196.563,163.529 z" fill-opacity="0" stroke="#8A8B8A" stroke-width="0.519"/>
    <path d="M197.773,162.806 L196.382,168.271 L196.837,167.995 L198.225,162.57 C198.092,162.623 197.974,162.692 197.852,162.763 L197.773,162.806 z" fill-opacity="0" stroke="#8A8B8A" stroke-width="0.519"/>
    <path d="M197.6,167.539 L198.059,167.262 L199.321,162.26 C199.192,162.278 199.056,162.303 198.92,162.335 L197.6,167.539 z" fill-opacity="0" stroke="#8A8B8A" stroke-width="0.519"/>
    <path d="M198.814,166.808 L199.273,166.535 L200.356,162.257 C200.231,162.239 200.102,162.236 199.973,162.236 L198.814,166.808 z" fill-opacity="0" stroke="#8A8B8A" stroke-width="0.519"/>
    <path d="M200.032,166.081 L200.491,165.805 L201.305,162.563 C201.194,162.509 201.079,162.452 200.957,162.409 L200.032,166.081 z" fill-opacity="0" stroke="#8A8B8A" stroke-width="0.519"/>
    <path d="M201.246,165.34 C201.446,165.196 201.618,165.035 201.751,164.863 L202.103,163.471 C202.052,163.299 201.959,163.142 201.834,162.995 L201.246,165.34 z" fill-opacity="0" stroke="#8A8B8A" stroke-width="0.519"/>
    <path d="M792.71,488.481 C793.22,471.094 784.352,452.856 767.391,440.055 L306.066,91.881 C289.901,79.675 259.884,79.675 238.66,91.881 L40.6,205.746 C22.936,215.901 12.849,230.778 12.871,244.275 L12.828,244.282 L12.828,259.831 L12.91,259.834 C12.774,266.515 14.997,272.89 19.992,278.222 L470.391,758.835 C498.676,789.01 546.231,789.006 574.387,758.832 L780.164,538.267 C788.225,529.629 792.251,519.086 792.689,508.178 L792.753,508.178 L792.753,488.488 L792.71,488.481 z" fill-opacity="0" stroke="#8A8B8A" stroke-width="0.519"/>
    <path d="M468.338,566.505 C481.247,554.801 481.667,536.187 469.586,524.906 C457.656,513.79 437.794,513.794 424.903,524.913 C411.833,536.191 410.628,554.798 422.519,566.498 C434.581,578.364 455.239,578.364 468.338,566.505 z z" fill="#00A3DA" opacity="0.3"/>
    <path d="M407.196,507.956 C420.069,497.059 421.141,479.718 409.874,469.201 C398.751,458.827 379.567,458.838 366.722,469.204 C353.72,479.718 351.916,497.055 362.989,507.953 C374.21,518.983 394.136,518.986 407.196,507.956 z z" fill="#00A3DA" opacity="0.3"/>
    <path d="M468.838,567.005 C455.739,578.864 435.081,578.864 423.019,566.998 C411.128,555.298 412.333,536.691 425.403,525.413 C438.294,514.294 458.156,514.29 470.086,525.406 C482.167,536.687 481.747,555.301 468.838,567.005 z" fill-opacity="0" stroke="#00A3DA" stroke-width="0.519"/>
    <path d="M407.696,508.456 C394.636,519.486 374.71,519.483 363.489,508.453 C352.416,497.555 354.22,480.218 367.222,469.704 C380.067,459.337 399.251,459.327 410.374,469.701 C421.641,480.218 420.569,497.559 407.696,508.456 z" fill-opacity="0" stroke="#00A3DA" stroke-width="0.519"/>
    <path d="M468.837,596 C455.741,608.063 435.083,608.063 423.017,595.993 C411.13,584.092 412.335,565.155 425.405,553.684 C438.296,542.367 458.158,542.36 470.084,553.677 C482.169,565.151 481.753,584.095 468.837,596 z" fill-opacity="0" stroke="#00A3DA" stroke-width="0.519" opacity="0.3"/>
    <path d="M407.694,536.43 C394.638,547.653 374.711,547.653 363.488,536.422 C352.415,525.342 354.222,507.7 367.224,497.003 C380.065,486.454 399.249,486.44 410.376,497 C421.639,507.696 420.571,525.342 407.694,536.43 z" fill-opacity="0" stroke="#00A3DA" stroke-width="0.519" opacity="0.3"/>
    <path d="M468.837,596 C455.741,608.063 435.083,608.063 423.017,595.993 C411.13,584.092 412.335,565.155 425.405,553.684 C438.296,542.367 458.158,542.36 470.084,553.677 C482.169,565.151 481.753,584.095 468.837,596 z" fill-opacity="0" stroke="#00A3DA" stroke-width="0.519" opacity="0.45"/>
    <path d="M407.694,536.43 C394.638,547.653 374.711,547.653 363.488,536.422 C352.415,525.342 354.222,507.7 367.224,497.003 C380.065,486.454 399.249,486.44 410.376,497 C421.639,507.696 420.571,525.342 407.694,536.43 z" fill-opacity="0" stroke="#00A3DA" stroke-width="0.519" opacity="0.45"/>
    <g opacity="0.45">
      <path d="M233.182,244.914 L233.182,246.24" fill-opacity="0" stroke="#00A3DA" stroke-width="0.519"/>
      <path d="M233.182,248.77 L233.182,272.791" fill-opacity="0" stroke="#00A3DA" stroke-width="0.519" stroke-dasharray="0.706,0.706"/>
      <path d="M233.182,274.058 L233.182,275.381" fill-opacity="0" stroke="#00A3DA" stroke-width="0.519"/>
    </g>
    <g opacity="0.45">
      <path d="M114.822,261.806 L114.822,263.194" fill-opacity="0" stroke="#00A3DA" stroke-width="0.519"/>
      <path d="M114.822,265.975 L114.822,292.406" fill-opacity="0" stroke="#00A3DA" stroke-width="0.519" stroke-dasharray="0.776,0.776"/>
      <path d="M114.822,293.796 L114.822,295.184" fill-opacity="0" stroke="#00A3DA" stroke-width="0.519"/>
    </g>
    <g opacity="0.45">
      <path d="M418.142,484.799 L418.142,486.187" fill-opacity="0" stroke="#00A3DA" stroke-width="0.519"/>
      <path d="M418.142,488.968 L418.142,515.4" fill-opacity="0" stroke="#00A3DA" stroke-width="0.519" stroke-dasharray="0.776,0.776"/>
      <path d="M418.142,516.789 L418.142,518.177" fill-opacity="0" stroke="#00A3DA" stroke-width="0.519"/>
    </g>
    <g opacity="0.45">
      <path d="M356.209,484.799 L356.209,486.187" fill-opacity="0" stroke="#00A3DA" stroke-width="0.519"/>
      <path d="M356.209,488.968 L356.209,515.4" fill-opacity="0" stroke="#00A3DA" stroke-width="0.519" stroke-dasharray="0.776,0.776"/>
      <path d="M356.209,516.789 L356.209,518.177" fill-opacity="0" stroke="#00A3DA" stroke-width="0.519"/>
    </g>
    <g opacity="0.45">
      <path d="M478.844,544.847 L478.844,546.234" fill-opacity="0" stroke="#00A3DA" stroke-width="0.519"/>
      <path d="M478.844,549.015 L478.844,575.446" fill-opacity="0" stroke="#00A3DA" stroke-width="0.519" stroke-dasharray="0.776,0.776"/>
      <path d="M478.844,576.837 L478.844,578.224" fill-opacity="0" stroke="#00A3DA" stroke-width="0.519"/>
    </g>
    <g opacity="0.45">
      <path d="M414.803,547.83 L414.803,549.218" fill-opacity="0" stroke="#00A3DA" stroke-width="0.519"/>
      <path d="M414.803,551.999 L414.803,578.43" fill-opacity="0" stroke="#00A3DA" stroke-width="0.519" stroke-dasharray="0.776,0.776"/>
      <path d="M414.803,579.82 L414.803,581.208" fill-opacity="0" stroke="#00A3DA" stroke-width="0.519"/>
    </g>
    <path d="M177.239,307.89 C171.336,302.163 173.624,292.944 182.259,287.322 C190.808,281.76 202.479,281.753 208.418,287.325 C214.417,292.944 212.387,302.156 203.799,307.89 C195.128,313.685 183.198,313.685 177.239,307.89 z M130.203,307.901 C124.495,302.156 127.102,292.944 135.916,287.329 C144.644,281.764 156.319,281.76 162.078,287.332 C167.883,292.948 165.542,302.16 156.771,307.897 C147.914,313.685 135.962,313.688 130.203,307.901 z M140.194,271.877 C134.596,266.427 137.059,257.685 145.619,252.342 C154.099,247.049 165.477,247.049 171.125,252.342 C176.816,257.681 174.596,266.427 166.076,271.874 C157.474,277.371 145.852,277.371 140.194,271.877 z M216.292,252.349 C222.158,257.685 220.244,266.423 211.892,271.881 C203.487,277.374 191.858,277.378 186.017,271.877 C180.229,266.427 182.413,257.685 190.782,252.349 C199.098,247.049 210.462,247.049 216.292,252.349 z M221.818,248.781 C203.648,232.365 168.306,232.362 141.89,248.781 C114.809,265.613 106.426,293.798 124.19,311.781 C142.413,330.219 180.369,330.23 207.873,311.777 C234.666,293.794 240.443,265.606 221.818,248.781 z" fill-opacity="0" stroke="#00A3DA" stroke-width="0.519" opacity="0.45"/>
    <path d="M167.536,301.408 C181.902,300.412 194.969,295.257 207.109,287.788 C233.902,269.805 239.679,241.617 221.054,224.792 C202.885,208.376 167.543,208.372 141.126,224.792 C114.046,241.624 105.662,269.809 123.426,287.792 C129.492,293.755 137.147,297.606 145.37,299.678 C148.898,300.567 152.555,300.831 156.147,301.408 z M129.44,283.912 C123.731,278.167 126.338,268.955 135.152,263.34 C143.88,257.775 155.555,257.771 161.314,263.343 C167.12,268.959 164.778,278.171 156.007,283.908 C147.15,289.696 135.199,289.699 129.44,283.912 z M176.475,283.901 C170.573,278.174 172.861,268.955 181.495,263.333 C190.044,257.771 201.716,257.764 207.654,263.336 C213.653,268.955 211.624,278.167 203.035,283.901 C194.365,289.696 182.435,289.696 176.475,283.901 z M185.253,247.888 C179.466,242.438 181.65,233.696 190.019,228.36 C198.334,223.06 209.698,223.06 215.529,228.36 C221.395,233.696 219.48,242.434 211.129,247.892 C202.724,253.385 191.095,253.389 185.253,247.888 z M139.43,247.888 C133.832,242.438 136.296,233.696 144.855,228.353 C153.336,223.06 164.714,223.06 170.361,228.353 C176.052,233.692 173.832,242.438 165.313,247.885 C156.71,253.382 145.088,253.382 139.43,247.888 z" fill="#00A3DA" opacity="0.3"/>
    <path d="M176.975,284.401 C171.073,278.674 173.361,269.455 181.995,263.832 C190.544,258.271 202.216,258.264 208.154,263.836 C214.153,269.455 212.124,278.667 203.535,284.401 C194.865,290.196 182.935,290.196 176.975,284.401 z M129.94,284.412 C124.231,278.667 126.838,269.455 135.652,263.84 C144.38,258.274 156.055,258.271 161.814,263.843 C167.62,269.459 165.278,278.671 156.507,284.408 C147.65,290.196 135.699,290.199 129.94,284.412 z M139.93,248.388 C134.332,242.938 136.796,234.196 145.355,228.853 C153.836,223.56 165.214,223.56 170.861,228.853 C176.552,234.192 174.332,242.938 165.812,248.385 C157.21,253.882 145.588,253.882 139.93,248.388 z M216.029,228.86 C221.895,234.196 219.98,242.934 211.629,248.392 C203.223,253.885 191.595,253.889 185.753,248.388 C179.966,242.938 182.15,234.196 190.519,228.86 C198.834,223.56 210.198,223.56 216.029,228.86 z M221.554,225.292 C203.385,208.876 168.043,208.872 141.626,225.292 C114.546,242.124 106.162,270.309 123.926,288.291 C142.15,306.73 180.106,306.741 207.609,288.288 C234.402,270.305 240.179,242.117 221.554,225.292 z" fill-opacity="0" stroke="#00A3DA" stroke-width="0.519"/>
    <g>
      <path d="M433.957,130.133 L426.675,130.133 L426.675,137.123 L433.957,137.123 z M433.957,126.348 L433.957,129.989 L437.597,129.989 L437.597,144.552 L433.957,144.552 L433.957,148.193 L426.675,148.193 L426.675,144.552 L433.957,144.552 L433.957,140.911 L426.675,140.911 L426.675,137.27 L423.034,137.27 L423.034,129.989 L426.675,129.989 L426.675,126.348 z" fill="#000000"/>
      <path d="M452.161,130.133 L444.879,130.133 L444.879,137.123 L452.161,137.123 z M444.879,137.27 L441.238,137.27 L441.238,129.989 L444.879,129.989 L444.879,126.348 L452.161,126.348 L452.161,129.989 L455.802,129.989 L455.802,140.911 L444.879,140.911 z" fill="#000000"/>
      <path d="M474.005,126.348 L481.287,126.348 L481.287,129.989 L484.928,129.989 L484.928,140.911 L481.287,140.911 L481.287,129.989 L474.005,129.989 L474.005,140.911 L470.364,140.911 L470.364,129.989 L463.082,129.989 L463.082,140.911 L459.442,140.911 L459.442,126.348 L470.364,126.348 L470.364,129.989 L474.005,129.989 z" fill="#000000"/>
      <path d="M495.851,137.125 L495.851,133.484 L499.491,133.484 L499.491,130.134 L492.21,130.134 L492.21,137.125 z M492.21,137.271 L488.569,137.271 L488.569,129.989 L492.21,129.989 L492.21,126.348 L503.132,126.348 L503.132,133.63 L499.491,133.63 L499.491,137.271 L503.132,137.271 L503.132,140.911 L492.21,140.911 z" fill="#000000"/>
      <path d="M521.337,129.989 L514.055,129.989 L514.055,133.63 L521.337,133.63 L521.337,137.27 L517.696,137.27 L517.696,140.911 L506.773,140.911 L506.773,137.27 L514.055,137.27 L514.055,133.63 L506.773,133.63 L506.773,129.989 L510.414,129.989 L510.414,126.348 L521.337,126.348 z" fill="#000000"/>
      <path d="M535.901,126.348 L535.901,129.989 L532.26,129.989 L532.26,140.911 L528.619,140.911 L528.619,129.989 L524.978,129.989 L524.978,126.348 L528.619,126.348 L528.619,122.707 L532.26,122.707 L532.26,126.348 z" fill="#000000"/>
      <path d="M539.541,129.989 L543.182,129.989 L543.182,140.911 L539.541,140.911 z M539.541,140.911 M539.541,122.707 L543.182,122.707 L543.182,126.348 L539.541,126.348 z" fill="#000000"/>
      <path d="M561.387,140.911 L550.464,140.911 L550.464,137.27 L546.823,137.27 L546.823,129.989 L550.464,129.989 L550.464,126.348 L561.387,126.348 L561.387,129.989 L550.464,129.989 L550.464,137.27 L561.387,137.27 z" fill="#000000"/>
      <path d="M575.95,140.911 L575.95,133.63 L572.31,133.63 L572.31,137.27 L568.669,137.27 L568.669,140.911 L565.028,140.911 L565.028,122.707 L568.669,122.707 L568.669,133.63 L572.31,133.63 L572.31,129.989 L575.95,129.989 L575.95,126.348 L579.591,126.348 L579.591,129.989 L575.95,129.989 L575.95,133.63 L579.591,133.63 L579.591,140.911 z" fill="#000000"/>
      <path d="M586.873,126.348 L586.873,129.989 L590.514,129.989 L590.514,126.348 L594.155,126.348 L594.155,129.989 L590.514,129.989 L590.514,133.63 L586.873,133.63 L586.873,140.911 L583.232,140.911 L583.232,126.348 z" fill="#000000"/>
      <path d="M448.147,154.442 L447.772,154.442 C446.298,154.442 445.561,155.243 445.561,156.731 L445.561,159.058 L448.16,159.058 C449.698,159.058 450.344,158.929 450.344,157.442 L450.344,156.059 C450.344,154.572 449.698,154.442 448.147,154.442 M448.16,159.73 L445.561,159.73 L445.561,161.631 C445.561,161.89 445.483,162.083 445.198,162.083 C444.953,162.083 444.888,161.89 444.888,161.631 L444.888,154.119 C444.888,153.886 444.953,153.68 445.225,153.68 C445.471,153.68 445.561,153.835 445.561,154.133 L445.561,154.584 C446.077,154.028 446.88,153.77 447.772,153.77 L448.147,153.77 C449.931,153.77 451.017,154.106 451.017,156.046 L451.017,157.454 C451.017,159.394 449.931,159.73 448.16,159.73" fill="#4D4E4C"/>
      <path d="M459.615,159.73 L458.594,159.73 L456.951,154.895 L455.18,159.73 L454.159,159.73 L452.271,154.093 C452.219,153.938 452.219,153.938 452.219,153.86 C452.219,153.68 452.361,153.615 452.529,153.615 C452.685,153.615 452.814,153.68 452.892,153.9 L454.702,159.109 L456.59,153.965 C456.666,153.77 456.745,153.692 456.964,153.692 C457.184,153.692 457.249,153.77 457.314,153.965 L459.124,159.109 L460.998,153.9 C461.077,153.692 461.205,153.615 461.36,153.615 C461.528,153.615 461.671,153.68 461.671,153.86 C461.671,153.938 461.671,153.938 461.619,154.093 z" fill="#4D4E4C"/>
      <path d="M463.687,156.744 L463.687,159.381 C463.687,159.666 463.597,159.821 463.351,159.821 C463.08,159.821 463.015,159.614 463.015,159.381 L463.015,154.132 C463.015,153.873 463.08,153.68 463.326,153.68 C463.609,153.68 463.687,153.887 463.687,154.145 L463.687,154.584 C464.205,154.028 465.006,153.77 465.898,153.77 L466.273,153.77 C468.058,153.77 469.144,154.106 469.144,156.046 L469.144,159.381 C469.144,159.627 469.079,159.821 468.82,159.821 C468.679,159.821 468.471,159.769 468.471,159.381 L468.471,156.058 C468.471,154.571 467.825,154.443 466.273,154.443 L465.898,154.443 C464.425,154.443 463.687,155.257 463.687,156.744" fill="#4D4E4C"/>
      <path d="M470.993,159.472 L470.993,154.041 C470.993,153.666 471.199,153.615 471.329,153.615 C471.459,153.615 471.665,153.666 471.665,154.041 L471.665,159.472 C471.665,159.678 471.6,159.886 471.316,159.886 C471.186,159.886 470.993,159.821 470.993,159.472 M471.988,151.96 C471.988,152.271 471.574,152.491 471.329,152.491 C471.071,152.491 470.67,152.271 470.67,151.96 C470.67,151.637 471.071,151.43 471.329,151.43 C471.574,151.43 471.988,151.637 471.988,151.96" fill="#4D4E4C"/>
      <path d="M474.251,156.744 L474.251,159.381 C474.251,159.666 474.161,159.821 473.915,159.821 C473.643,159.821 473.578,159.614 473.578,159.381 L473.578,154.132 C473.578,153.873 473.643,153.68 473.889,153.68 C474.173,153.68 474.251,153.887 474.251,154.145 L474.251,154.584 C474.769,154.028 475.57,153.77 476.462,153.77 L476.837,153.77 C478.621,153.77 479.707,154.106 479.707,156.046 L479.707,159.381 C479.707,159.627 479.642,159.821 479.384,159.821 C479.242,159.821 479.034,159.769 479.034,159.381 L479.034,156.058 C479.034,154.571 478.388,154.443 476.837,154.443 L476.462,154.443 C474.988,154.443 474.251,155.257 474.251,156.744" fill="#4D4E4C"/>
      <path d="M486.857,156.718 C486.857,155.244 486.119,154.442 484.646,154.442 L484.271,154.442 C482.719,154.442 482.073,154.572 482.073,156.059 L482.073,157.442 C482.073,158.929 482.719,159.059 484.271,159.059 L486.857,159.059 z M486.352,162.38 L482.693,162.38 C481.531,162.38 481.401,161.618 481.401,160.933 C481.401,160.7 481.466,160.481 481.737,160.481 C481.97,160.481 482.073,160.622 482.073,160.907 C482.073,161.528 482.267,161.709 482.784,161.709 L486.262,161.709 C486.767,161.709 486.857,161.566 486.857,161.062 L486.857,159.73 L484.271,159.73 C482.486,159.73 481.401,159.394 481.401,157.455 L481.401,156.045 C481.401,154.106 482.486,153.769 484.271,153.769 L484.646,153.769 C485.538,153.769 486.339,154.029 486.857,154.585 L486.857,154.132 C486.857,153.834 486.947,153.679 487.193,153.679 C487.465,153.679 487.529,153.886 487.529,154.119 L487.529,160.855 C487.529,161.929 487.296,162.38 486.352,162.38" fill="#4D4E4C"/>
      <path d="M499.657,159.73 L498.636,159.73 L496.993,154.895 L495.222,159.73 L494.201,159.73 L492.313,154.093 C492.261,153.938 492.261,153.938 492.261,153.86 C492.261,153.68 492.403,153.615 492.571,153.615 C492.727,153.615 492.856,153.68 492.934,153.9 L494.744,159.109 L496.632,153.965 C496.708,153.77 496.787,153.692 497.006,153.692 C497.226,153.692 497.291,153.77 497.356,153.965 L499.166,159.109 L501.04,153.9 C501.119,153.692 501.247,153.615 501.402,153.615 C501.57,153.615 501.713,153.68 501.713,153.86 C501.713,153.938 501.713,153.938 501.661,154.093 z" fill="#4D4E4C"/>
      <path d="M503.057,159.472 L503.057,154.041 C503.057,153.666 503.264,153.615 503.394,153.615 C503.523,153.615 503.73,153.666 503.73,154.041 L503.73,159.472 C503.73,159.678 503.665,159.886 503.38,159.886 C503.251,159.886 503.057,159.821 503.057,159.472 M504.053,151.96 C504.053,152.271 503.639,152.491 503.394,152.491 C503.135,152.491 502.734,152.271 502.734,151.96 C502.734,151.637 503.135,151.43 503.394,151.43 C503.639,151.43 504.053,151.637 504.053,151.96" fill="#4D4E4C"/>
      <path d="M508.449,159.058 C508.707,159.058 508.902,159.123 508.902,159.368 C508.902,159.653 508.707,159.731 508.449,159.731 C506.781,159.731 505.695,159.381 505.695,157.455 L505.695,154.43 C505.462,154.416 505.294,154.339 505.294,154.08 C505.294,153.873 505.437,153.783 505.695,153.77 L505.695,152.425 C505.695,152.167 505.76,151.96 506.005,151.96 C506.289,151.96 506.368,152.167 506.368,152.425 L506.368,153.77 L508.151,153.77 C508.41,153.77 508.617,153.847 508.617,154.132 C508.617,154.378 508.41,154.443 508.151,154.443 L506.368,154.443 L506.368,157.442 C506.368,158.928 507.014,159.058 508.449,159.058" fill="#4D4E4C"/>
      <path d="M510.776,156.744 L510.776,159.381 C510.776,159.666 510.686,159.821 510.44,159.821 C510.169,159.821 510.104,159.614 510.104,159.381 L510.104,151.882 C510.104,151.624 510.169,151.417 510.415,151.417 C510.698,151.417 510.776,151.624 510.776,151.882 L510.776,154.584 C511.294,154.028 512.095,153.77 512.987,153.77 L513.362,153.77 C515.147,153.77 516.232,154.106 516.232,156.046 L516.232,159.381 C516.232,159.627 516.167,159.821 515.909,159.821 C515.768,159.821 515.56,159.769 515.56,159.381 L515.56,156.058 C515.56,154.571 514.914,154.443 513.362,154.443 L512.987,154.443 C511.514,154.443 510.776,155.257 510.776,156.744" fill="#4D4E4C"/>
      <path d="M524.727,154.442 L524.352,154.442 C522.879,154.442 522.141,155.243 522.141,156.731 L522.141,159.058 L524.74,159.058 C526.279,159.058 526.925,158.929 526.925,157.442 L526.925,156.059 C526.925,154.572 526.279,154.442 524.727,154.442 M524.74,159.73 L522.141,159.73 L522.141,161.631 C522.141,161.89 522.063,162.083 521.779,162.083 C521.534,162.083 521.469,161.89 521.469,161.631 L521.469,154.119 C521.469,153.886 521.534,153.68 521.805,153.68 C522.051,153.68 522.141,153.835 522.141,154.133 L522.141,154.584 C522.658,154.028 523.46,153.77 524.352,153.77 L524.727,153.77 C526.512,153.77 527.597,154.106 527.597,156.046 L527.597,157.454 C527.597,159.394 526.512,159.73 524.74,159.73" fill="#4D4E4C"/>
      <path d="M530.028,156.744 L530.028,159.381 C530.028,159.666 529.938,159.821 529.692,159.821 C529.42,159.821 529.355,159.614 529.355,159.381 L529.355,154.132 C529.355,153.873 529.42,153.68 529.667,153.68 C529.95,153.68 530.028,153.887 530.028,154.145 L530.028,154.584 C530.546,154.028 531.308,153.77 532.109,153.77 L532.704,153.77 C532.988,153.77 533.157,153.86 533.157,154.106 C533.157,154.235 533.105,154.443 532.704,154.443 L532.109,154.443 C530.766,154.443 530.028,155.257 530.028,156.744" fill="#4D4E4C"/>
      <path d="M536.932,154.442 C535.394,154.442 534.748,154.584 534.721,155.891 L539.505,155.891 C539.479,154.584 538.833,154.442 537.307,154.442 z M540.177,156.563 L534.721,156.563 L534.721,157.442 C534.721,158.929 535.367,159.058 536.932,159.058 L538.665,159.058 C539.233,159.058 539.376,158.826 539.376,158.257 C539.376,157.882 539.583,157.83 539.713,157.83 C539.944,157.83 540.049,157.985 540.049,158.295 C540.049,158.981 539.919,159.73 538.755,159.73 L536.932,159.73 C535.136,159.73 534.049,159.394 534.049,157.454 L534.049,156.046 C534.049,154.106 535.136,153.77 536.932,153.77 L537.307,153.77 C539.092,153.77 540.177,154.106 540.177,156.046 z" fill="#4D4E4C"/>
      <path d="M544.586,159.73 C542.79,159.73 541.703,159.394 541.703,157.454 L541.703,156.046 C541.703,154.106 542.79,153.77 544.586,153.77 L546.41,153.77 C547.573,153.77 547.703,154.533 547.703,155.218 C547.703,155.451 547.638,155.671 547.367,155.671 C547.237,155.671 547.03,155.619 547.03,155.243 C547.03,154.624 546.836,154.442 546.32,154.442 L544.586,154.442 C543.022,154.442 542.375,154.572 542.375,156.059 L542.375,157.441 C542.375,158.929 543.022,159.058 544.586,159.058 L546.32,159.058 C546.888,159.058 547.03,158.825 547.03,158.257 C547.03,157.882 547.237,157.829 547.367,157.829 C547.598,157.829 547.703,157.985 547.703,158.295 C547.703,158.981 547.573,159.73 546.41,159.73 z" fill="#4D4E4C"/>
      <path d="M549.409,159.472 L549.409,154.041 C549.409,153.666 549.616,153.615 549.745,153.615 C549.875,153.615 550.082,153.666 550.082,154.041 L550.082,159.472 C550.082,159.678 550.017,159.886 549.732,159.886 C549.602,159.886 549.409,159.821 549.409,159.472 M550.405,151.96 C550.405,152.271 549.99,152.491 549.745,152.491 C549.487,152.491 549.086,152.271 549.086,151.96 C549.086,151.637 549.487,151.43 549.745,151.43 C549.99,151.43 550.405,151.637 550.405,151.96" fill="#4D4E4C"/>
      <path d="M551.814,158.295 C551.814,157.985 551.917,157.829 552.15,157.829 C552.383,157.829 552.486,157.972 552.486,158.257 C552.486,158.825 552.628,159.058 553.197,159.058 L556.404,159.058 C556.96,159.058 557.167,158.657 557.167,158.102 C557.167,157.454 556.857,157.015 556.404,157.015 L553.482,157.015 C552.228,157.015 551.814,156.266 551.814,155.335 C551.814,154.378 552.215,153.77 553.61,153.77 L556.521,153.77 C557.684,153.77 557.813,154.533 557.813,155.218 C557.813,155.451 557.748,155.671 557.476,155.671 C557.348,155.671 557.14,155.619 557.14,155.243 C557.14,154.624 556.947,154.442 556.429,154.442 L553.249,154.442 C552.796,154.442 552.486,154.676 552.486,155.335 C552.486,156.006 552.823,156.342 553.249,156.342 L556.184,156.342 C557.503,156.342 557.839,157.248 557.839,158.102 C557.839,159.096 557.413,159.73 556.054,159.73 L553.107,159.73 C551.944,159.73 551.814,158.981 551.814,158.295" fill="#4D4E4C"/>
      <path d="M559.571,159.472 L559.571,154.041 C559.571,153.666 559.778,153.615 559.908,153.615 C560.037,153.615 560.244,153.666 560.244,154.041 L560.244,159.472 C560.244,159.678 560.179,159.886 559.895,159.886 C559.765,159.886 559.571,159.821 559.571,159.472 M560.567,151.96 C560.567,152.271 560.153,152.491 559.908,152.491 C559.65,152.491 559.248,152.271 559.248,151.96 C559.248,151.637 559.65,151.43 559.908,151.43 C560.153,151.43 560.567,151.637 560.567,151.96" fill="#4D4E4C"/>
      <path d="M565.26,159.058 C566.812,159.058 567.458,158.928 567.458,157.442 L567.458,156.058 C567.458,154.571 566.812,154.443 565.26,154.443 L564.886,154.443 C563.321,154.443 562.675,154.571 562.675,156.058 L562.675,157.442 C562.675,158.928 563.321,159.058 564.886,159.058 z M564.886,159.731 C563.088,159.731 562.002,159.394 562.002,157.455 L562.002,156.046 C562.002,154.106 563.088,153.77 564.886,153.77 L565.26,153.77 C567.045,153.77 568.131,154.106 568.131,156.046 L568.131,157.455 C568.131,159.394 567.045,159.731 565.26,159.731 z" fill="#4D4E4C"/>
      <path d="M570.561,156.744 L570.561,159.381 C570.561,159.666 570.471,159.821 570.225,159.821 C569.954,159.821 569.889,159.614 569.889,159.381 L569.889,154.132 C569.889,153.873 569.954,153.68 570.2,153.68 C570.483,153.68 570.561,153.887 570.561,154.145 L570.561,154.584 C571.079,154.028 571.88,153.77 572.772,153.77 L573.147,153.77 C574.932,153.77 576.018,154.106 576.018,156.046 L576.018,159.381 C576.018,159.627 575.953,159.821 575.694,159.821 C575.553,159.821 575.345,159.769 575.345,159.381 L575.345,156.058 C575.345,154.571 574.699,154.443 573.147,154.443 L572.772,154.443 C571.299,154.443 570.561,155.257 570.561,156.744" fill="#4D4E4C"/>
      <path d="M486.294,191.456 C485.677,192.824 485.382,193.434 484.587,194.642 C483.479,196.331 481.917,198.434 479.98,198.451 C478.261,198.467 477.821,197.332 475.485,197.344 C473.151,197.355 472.662,198.469 470.943,198.454 C469.007,198.435 467.527,196.54 466.417,194.851 C463.318,190.132 462.993,184.593 464.907,181.654 C466.264,179.559 468.407,178.336 470.422,178.336 C472.474,178.336 473.764,179.46 475.46,179.46 C477.107,179.46 478.108,178.333 480.48,178.333 C482.274,178.333 484.173,179.31 485.527,181 C481.092,183.428 481.812,189.763 486.294,191.456" fill="#ABACAB"/>
      <path d="M478.681,176.448 C479.542,175.341 480.198,173.779 479.96,172.184 C478.553,172.28 476.906,173.177 475.944,174.343 C475.071,175.403 474.35,176.975 474.631,178.504 C476.17,178.551 477.758,177.634 478.681,176.448" fill="#ABACAB"/>
      <path d="M500.101,180.753 C499.229,180.753 498.522,181.472 498.522,182.357 L498.522,188.624 C498.522,189.512 499.229,190.23 500.101,190.23 C500.974,190.23 501.681,189.512 501.681,188.624 L501.681,182.357 C501.681,181.472 500.974,180.753 500.101,180.753" fill="#A0C03C"/>
      <path d="M502.829,180.847 L502.829,192.19 C502.829,192.866 503.377,193.411 504.05,193.411 L505.444,193.411 L505.444,196.867 C505.444,197.743 506.144,198.454 507.008,198.454 C507.872,198.454 508.574,197.743 508.574,196.867 L508.574,193.411 L511.009,193.411 L511.009,196.867 C511.009,197.743 511.708,198.454 512.572,198.454 C513.437,198.454 514.136,197.743 514.136,196.867 L514.136,193.411 L515.531,193.411 C516.205,193.411 516.751,192.866 516.751,192.19 L516.751,180.847 z" fill="#A0C03C"/>
      <path d="M519.48,180.751 C518.608,180.751 517.9,181.47 517.9,182.357 L517.9,188.627 C517.9,189.514 518.608,190.233 519.48,190.233 C520.352,190.233 521.058,189.514 521.058,188.627 L521.058,182.357 C521.058,181.47 520.352,180.751 519.48,180.751" fill="#A0C03C"/>
      <path d="M512.823,177.777 C512.397,177.777 512.053,177.433 512.053,177.009 C512.053,176.583 512.397,176.239 512.823,176.239 C513.248,176.239 513.594,176.583 513.594,177.009 C513.594,177.433 513.248,177.777 512.823,177.777 M506.854,177.777 C506.43,177.777 506.083,177.433 506.083,177.009 C506.083,176.583 506.429,176.239 506.854,176.239 C507.279,176.239 507.623,176.583 507.623,177.009 C507.623,177.433 507.279,177.777 506.854,177.777 M513.442,175.023 L514.764,173.081 C514.943,172.82 514.876,172.46 514.613,172.283 C514.35,172.104 513.993,172.172 513.815,172.435 L512.372,174.555 C511.572,174.278 510.704,174.118 509.79,174.118 C508.877,174.118 508.008,174.278 507.209,174.552 L505.767,172.435 C505.587,172.172 505.231,172.104 504.967,172.283 C504.705,172.46 504.637,172.82 504.816,173.081 L506.14,175.023 C504.288,176.014 503.001,177.72 502.829,179.704 L516.75,179.704 C516.578,177.718 515.293,176.014 513.442,175.023" fill="#A0C03C"/>
      <path d="M557.669,186.057 L557.665,198.454 L543.473,196.453 L543.454,186.033 z M543.473,174.255 L557.665,172.183 L557.665,184.638 L543.473,184.752 z M542.176,185.959 L542.185,196.292 L531.488,194.821 L531.486,185.892 z M531.478,175.902 L542.183,174.446 L542.187,184.769 L531.489,184.831 z" fill="#5A9DC9"/>
    </g>
  </g>
  <defs/>
</svg>
